<?xml version="1.0" encoding="utf-8" standalone="no"?>
<!DOCTYPE svg PUBLIC "-//W3C//DTD SVG 1.1//EN"
  "http://www.w3.org/Graphics/SVG/1.1/DTD/svg11.dtd">
<!-- Created with matplotlib (https://matplotlib.org/) -->
<svg height="576pt" version="1.1" viewBox="0 0 576 576" width="576pt" xmlns="http://www.w3.org/2000/svg" xmlns:xlink="http://www.w3.org/1999/xlink">
 <defs>
  <style type="text/css">
*{stroke-linecap:butt;stroke-linejoin:round;}
  </style>
 </defs>
 <g id="figure_1">
  <g id="patch_1">
   <path d="M 0 576 
L 576 576 
L 576 0 
L 0 0 
z
" style="fill:#ffffff;"/>
  </g>
  <g id="axes_1">
   <g id="patch_2">
    <path d="M 85.765625 502.609375 
L 541.875 502.609375 
L 541.875 47.390625 
L 85.765625 47.390625 
z
" style="fill:#ffffff;"/>
   </g>
   <g id="PathCollection_1">
    <defs>
     <path d="M -3 3 
L 3 -3 
M -3 -3 
L 3 3 
" id="m825d0b5e04" style="stroke:#0000ff;stroke-width:1.5;"/>
    </defs>
    <g clip-path="url(#p876f16bc47)">
     <use style="fill:#0000ff;stroke:#0000ff;stroke-width:1.5;" x="281.343318" xlink:href="#m825d0b5e04" y="233.789032"/>
     <use style="fill:#0000ff;stroke:#0000ff;stroke-width:1.5;" x="334.878356" xlink:href="#m825d0b5e04" y="223.039693"/>
     <use style="fill:#0000ff;stroke:#0000ff;stroke-width:1.5;" x="327.762958" xlink:href="#m825d0b5e04" y="235.678094"/>
     <use style="fill:#0000ff;stroke:#0000ff;stroke-width:1.5;" x="323.986954" xlink:href="#m825d0b5e04" y="189.909757"/>
     <use style="fill:#0000ff;stroke:#0000ff;stroke-width:1.5;" x="300.927639" xlink:href="#m825d0b5e04" y="353.588071"/>
     <use style="fill:#0000ff;stroke:#0000ff;stroke-width:1.5;" x="302.546551" xlink:href="#m825d0b5e04" y="308.564513"/>
     <use style="fill:#0000ff;stroke:#0000ff;stroke-width:1.5;" x="354.0323" xlink:href="#m825d0b5e04" y="205.450357"/>
     <use style="fill:#0000ff;stroke:#0000ff;stroke-width:1.5;" x="337.206542" xlink:href="#m825d0b5e04" y="248.665435"/>
     <use style="fill:#0000ff;stroke:#0000ff;stroke-width:1.5;" x="338.6542" xlink:href="#m825d0b5e04" y="360.562221"/>
     <use style="fill:#0000ff;stroke:#0000ff;stroke-width:1.5;" x="295.388547" xlink:href="#m825d0b5e04" y="192.101448"/>
     <use style="fill:#0000ff;stroke:#0000ff;stroke-width:1.5;" x="315.872068" xlink:href="#m825d0b5e04" y="281.956829"/>
     <use style="fill:#0000ff;stroke:#0000ff;stroke-width:1.5;" x="276.296169" xlink:href="#m825d0b5e04" y="195.144551"/>
     <use style="fill:#0000ff;stroke:#0000ff;stroke-width:1.5;" x="318.756525" xlink:href="#m825d0b5e04" y="361.871056"/>
     <use style="fill:#0000ff;stroke:#0000ff;stroke-width:1.5;" x="337.727875" xlink:href="#m825d0b5e04" y="254.813176"/>
     <use style="fill:#0000ff;stroke:#0000ff;stroke-width:1.5;" x="376.519084" xlink:href="#m825d0b5e04" y="323.619214"/>
     <use style="fill:#0000ff;stroke:#0000ff;stroke-width:1.5;" x="307.587823" xlink:href="#m825d0b5e04" y="376.32357"/>
     <use style="fill:#0000ff;stroke:#0000ff;stroke-width:1.5;" x="321.819467" xlink:href="#m825d0b5e04" y="284.005468"/>
     <use style="fill:#0000ff;stroke:#0000ff;stroke-width:1.5;" x="334.862731" xlink:href="#m825d0b5e04" y="375.348869"/>
     <use style="fill:#0000ff;stroke:#0000ff;stroke-width:1.5;" x="316.936367" xlink:href="#m825d0b5e04" y="252.027342"/>
     <use style="fill:#0000ff;stroke:#0000ff;stroke-width:1.5;" x="311.264276" xlink:href="#m825d0b5e04" y="280.755955"/>
     <use style="fill:#0000ff;stroke:#0000ff;stroke-width:1.5;" x="339.091071" xlink:href="#m825d0b5e04" y="301.376606"/>
     <use style="fill:#0000ff;stroke:#0000ff;stroke-width:1.5;" x="347.189813" xlink:href="#m825d0b5e04" y="260.192189"/>
     <use style="fill:#0000ff;stroke:#0000ff;stroke-width:1.5;" x="299.283444" xlink:href="#m825d0b5e04" y="374.329834"/>
     <use style="fill:#0000ff;stroke:#0000ff;stroke-width:1.5;" x="341.202575" xlink:href="#m825d0b5e04" y="364.384321"/>
     <use style="fill:#0000ff;stroke:#0000ff;stroke-width:1.5;" x="298.890985" xlink:href="#m825d0b5e04" y="242.61795"/>
     <use style="fill:#0000ff;stroke:#0000ff;stroke-width:1.5;" x="299.212805" xlink:href="#m825d0b5e04" y="213.395725"/>
     <use style="fill:#0000ff;stroke:#0000ff;stroke-width:1.5;" x="360.42656" xlink:href="#m825d0b5e04" y="256.24376"/>
     <use style="fill:#0000ff;stroke:#0000ff;stroke-width:1.5;" x="335.401666" xlink:href="#m825d0b5e04" y="146.319292"/>
     <use style="fill:#0000ff;stroke:#0000ff;stroke-width:1.5;" x="332.387971" xlink:href="#m825d0b5e04" y="349.147664"/>
     <use style="fill:#0000ff;stroke:#0000ff;stroke-width:1.5;" x="344.077363" xlink:href="#m825d0b5e04" y="318.112102"/>
     <use style="fill:#0000ff;stroke:#0000ff;stroke-width:1.5;" x="327.361638" xlink:href="#m825d0b5e04" y="325.856906"/>
     <use style="fill:#0000ff;stroke:#0000ff;stroke-width:1.5;" x="389.444691" xlink:href="#m825d0b5e04" y="325.846667"/>
     <use style="fill:#0000ff;stroke:#0000ff;stroke-width:1.5;" x="315.044449" xlink:href="#m825d0b5e04" y="365.78923"/>
     <use style="fill:#0000ff;stroke:#0000ff;stroke-width:1.5;" x="307.071921" xlink:href="#m825d0b5e04" y="330.993146"/>
     <use style="fill:#0000ff;stroke:#0000ff;stroke-width:1.5;" x="317.852765" xlink:href="#m825d0b5e04" y="295.003431"/>
     <use style="fill:#0000ff;stroke:#0000ff;stroke-width:1.5;" x="338.364005" xlink:href="#m825d0b5e04" y="389.279177"/>
     <use style="fill:#0000ff;stroke:#0000ff;stroke-width:1.5;" x="351.501541" xlink:href="#m825d0b5e04" y="352.233006"/>
     <use style="fill:#0000ff;stroke:#0000ff;stroke-width:1.5;" x="352.376055" xlink:href="#m825d0b5e04" y="372.055102"/>
     <use style="fill:#0000ff;stroke:#0000ff;stroke-width:1.5;" x="253.054047" xlink:href="#m825d0b5e04" y="173.588863"/>
     <use style="fill:#0000ff;stroke:#0000ff;stroke-width:1.5;" x="261.955166" xlink:href="#m825d0b5e04" y="191.465508"/>
     <use style="fill:#0000ff;stroke:#0000ff;stroke-width:1.5;" x="337.107578" xlink:href="#m825d0b5e04" y="326.63977"/>
     <use style="fill:#0000ff;stroke:#0000ff;stroke-width:1.5;" x="294.514348" xlink:href="#m825d0b5e04" y="335.621201"/>
     <use style="fill:#0000ff;stroke:#0000ff;stroke-width:1.5;" x="348.659223" xlink:href="#m825d0b5e04" y="421.610028"/>
     <use style="fill:#0000ff;stroke:#0000ff;stroke-width:1.5;" x="304.713137" xlink:href="#m825d0b5e04" y="315.048855"/>
     <use style="fill:#0000ff;stroke:#0000ff;stroke-width:1.5;" x="306.656991" xlink:href="#m825d0b5e04" y="244.592134"/>
     <use style="fill:#0000ff;stroke:#0000ff;stroke-width:1.5;" x="239.276151" xlink:href="#m825d0b5e04" y="250.705933"/>
     <use style="fill:#0000ff;stroke:#0000ff;stroke-width:1.5;" x="283.252991" xlink:href="#m825d0b5e04" y="358.737382"/>
     <use style="fill:#0000ff;stroke:#0000ff;stroke-width:1.5;" x="336.688975" xlink:href="#m825d0b5e04" y="276.151359"/>
     <use style="fill:#0000ff;stroke:#0000ff;stroke-width:1.5;" x="382.807306" xlink:href="#m825d0b5e04" y="334.579581"/>
     <use style="fill:#0000ff;stroke:#0000ff;stroke-width:1.5;" x="345.444767" xlink:href="#m825d0b5e04" y="301.609767"/>
     <use style="fill:#0000ff;stroke:#0000ff;stroke-width:1.5;" x="336.821627" xlink:href="#m825d0b5e04" y="273.919933"/>
     <use style="fill:#0000ff;stroke:#0000ff;stroke-width:1.5;" x="301.914418" xlink:href="#m825d0b5e04" y="347.697714"/>
     <use style="fill:#0000ff;stroke:#0000ff;stroke-width:1.5;" x="284.66488" xlink:href="#m825d0b5e04" y="178.528075"/>
     <use style="fill:#0000ff;stroke:#0000ff;stroke-width:1.5;" x="237.31932" xlink:href="#m825d0b5e04" y="268.39071"/>
     <use style="fill:#0000ff;stroke:#0000ff;stroke-width:1.5;" x="323.922227" xlink:href="#m825d0b5e04" y="281.395527"/>
     <use style="fill:#0000ff;stroke:#0000ff;stroke-width:1.5;" x="334.015471" xlink:href="#m825d0b5e04" y="339.0934"/>
     <use style="fill:#0000ff;stroke:#0000ff;stroke-width:1.5;" x="342.336259" xlink:href="#m825d0b5e04" y="312.99344"/>
     <use style="fill:#0000ff;stroke:#0000ff;stroke-width:1.5;" x="331.887706" xlink:href="#m825d0b5e04" y="297.884299"/>
     <use style="fill:#0000ff;stroke:#0000ff;stroke-width:1.5;" x="339.44447" xlink:href="#m825d0b5e04" y="269.663339"/>
     <use style="fill:#0000ff;stroke:#0000ff;stroke-width:1.5;" x="388.809696" xlink:href="#m825d0b5e04" y="201.453562"/>
     <use style="fill:#0000ff;stroke:#0000ff;stroke-width:1.5;" x="321.220572" xlink:href="#m825d0b5e04" y="371.084762"/>
     <use style="fill:#0000ff;stroke:#0000ff;stroke-width:1.5;" x="340.685762" xlink:href="#m825d0b5e04" y="377.725009"/>
     <use style="fill:#0000ff;stroke:#0000ff;stroke-width:1.5;" x="304.47623" xlink:href="#m825d0b5e04" y="278.59677"/>
     <use style="fill:#0000ff;stroke:#0000ff;stroke-width:1.5;" x="342.38124" xlink:href="#m825d0b5e04" y="315.011547"/>
     <use style="fill:#0000ff;stroke:#0000ff;stroke-width:1.5;" x="333.373008" xlink:href="#m825d0b5e04" y="313.867424"/>
     <use style="fill:#0000ff;stroke:#0000ff;stroke-width:1.5;" x="287.771572" xlink:href="#m825d0b5e04" y="280.565836"/>
     <use style="fill:#0000ff;stroke:#0000ff;stroke-width:1.5;" x="334.937908" xlink:href="#m825d0b5e04" y="184.315781"/>
     <use style="fill:#0000ff;stroke:#0000ff;stroke-width:1.5;" x="324.382663" xlink:href="#m825d0b5e04" y="270.378461"/>
     <use style="fill:#0000ff;stroke:#0000ff;stroke-width:1.5;" x="317.050628" xlink:href="#m825d0b5e04" y="229.327985"/>
     <use style="fill:#0000ff;stroke:#0000ff;stroke-width:1.5;" x="334.739526" xlink:href="#m825d0b5e04" y="242.149721"/>
     <use style="fill:#0000ff;stroke:#0000ff;stroke-width:1.5;" x="-1" xlink:href="#m825d0b5e04" y="233.930846"/>
     <use style="fill:#0000ff;stroke:#0000ff;stroke-width:1.5;" x="-1" xlink:href="#m825d0b5e04" y="257.64385"/>
     <use style="fill:#0000ff;stroke:#0000ff;stroke-width:1.5;" x="268.97976" xlink:href="#m825d0b5e04" y="291.682396"/>
     <use style="fill:#0000ff;stroke:#0000ff;stroke-width:1.5;" x="328.564332" xlink:href="#m825d0b5e04" y="264.139318"/>
     <use style="fill:#0000ff;stroke:#0000ff;stroke-width:1.5;" x="314.325286" xlink:href="#m825d0b5e04" y="335.172582"/>
     <use style="fill:#0000ff;stroke:#0000ff;stroke-width:1.5;" x="302.600025" xlink:href="#m825d0b5e04" y="232.356537"/>
     <use style="fill:#0000ff;stroke:#0000ff;stroke-width:1.5;" x="325.588703" xlink:href="#m825d0b5e04" y="265.434488"/>
     <use style="fill:#0000ff;stroke:#0000ff;stroke-width:1.5;" x="298.800782" xlink:href="#m825d0b5e04" y="262.984478"/>
     <use style="fill:#0000ff;stroke:#0000ff;stroke-width:1.5;" x="306.901461" xlink:href="#m825d0b5e04" y="318.240123"/>
     <use style="fill:#0000ff;stroke:#0000ff;stroke-width:1.5;" x="295.312388" xlink:href="#m825d0b5e04" y="307.833233"/>
     <use style="fill:#0000ff;stroke:#0000ff;stroke-width:1.5;" x="292.090338" xlink:href="#m825d0b5e04" y="268.512861"/>
     <use style="fill:#0000ff;stroke:#0000ff;stroke-width:1.5;" x="-1" xlink:href="#m825d0b5e04" y="350.645092"/>
     <use style="fill:#0000ff;stroke:#0000ff;stroke-width:1.5;" x="-1" xlink:href="#m825d0b5e04" y="361.114554"/>
     <use style="fill:#0000ff;stroke:#0000ff;stroke-width:1.5;" x="344.629783" xlink:href="#m825d0b5e04" y="282.954241"/>
     <use style="fill:#0000ff;stroke:#0000ff;stroke-width:1.5;" x="284.712996" xlink:href="#m825d0b5e04" y="250.309661"/>
     <use style="fill:#0000ff;stroke:#0000ff;stroke-width:1.5;" x="298.044483" xlink:href="#m825d0b5e04" y="305.77145"/>
     <use style="fill:#0000ff;stroke:#0000ff;stroke-width:1.5;" x="271.276273" xlink:href="#m825d0b5e04" y="356.103222"/>
     <use style="fill:#0000ff;stroke:#0000ff;stroke-width:1.5;" x="297.225623" xlink:href="#m825d0b5e04" y="230.541672"/>
     <use style="fill:#0000ff;stroke:#0000ff;stroke-width:1.5;" x="322.511659" xlink:href="#m825d0b5e04" y="323.716683"/>
     <use style="fill:#0000ff;stroke:#0000ff;stroke-width:1.5;" x="397.445322" xlink:href="#m825d0b5e04" y="442.737339"/>
     <use style="fill:#0000ff;stroke:#0000ff;stroke-width:1.5;" x="239.835098" xlink:href="#m825d0b5e04" y="271.398729"/>
     <use style="fill:#0000ff;stroke:#0000ff;stroke-width:1.5;" x="282.741698" xlink:href="#m825d0b5e04" y="188.184219"/>
     <use style="fill:#0000ff;stroke:#0000ff;stroke-width:1.5;" x="296.655612" xlink:href="#m825d0b5e04" y="267.255703"/>
     <use style="fill:#0000ff;stroke:#0000ff;stroke-width:1.5;" x="328.61749" xlink:href="#m825d0b5e04" y="192.46921"/>
     <use style="fill:#0000ff;stroke:#0000ff;stroke-width:1.5;" x="382.960646" xlink:href="#m825d0b5e04" y="251.868109"/>
     <use style="fill:#0000ff;stroke:#0000ff;stroke-width:1.5;" x="266.709605" xlink:href="#m825d0b5e04" y="306.523591"/>
     <use style="fill:#0000ff;stroke:#0000ff;stroke-width:1.5;" x="392.424941" xlink:href="#m825d0b5e04" y="347.53501"/>
     <use style="fill:#0000ff;stroke:#0000ff;stroke-width:1.5;" x="241.60766" xlink:href="#m825d0b5e04" y="352.435641"/>
     <use style="fill:#0000ff;stroke:#0000ff;stroke-width:1.5;" x="294.154065" xlink:href="#m825d0b5e04" y="165.2465"/>
     <use style="fill:#0000ff;stroke:#0000ff;stroke-width:1.5;" x="308.975716" xlink:href="#m825d0b5e04" y="211.47131"/>
     <use style="fill:#0000ff;stroke:#0000ff;stroke-width:1.5;" x="326.030046" xlink:href="#m825d0b5e04" y="320.378838"/>
     <use style="fill:#0000ff;stroke:#0000ff;stroke-width:1.5;" x="343.678861" xlink:href="#m825d0b5e04" y="263.892865"/>
     <use style="fill:#0000ff;stroke:#0000ff;stroke-width:1.5;" x="348.878372" xlink:href="#m825d0b5e04" y="265.030545"/>
     <use style="fill:#0000ff;stroke:#0000ff;stroke-width:1.5;" x="313.29029" xlink:href="#m825d0b5e04" y="238.44151"/>
     <use style="fill:#0000ff;stroke:#0000ff;stroke-width:1.5;" x="255.643602" xlink:href="#m825d0b5e04" y="237.491447"/>
     <use style="fill:#0000ff;stroke:#0000ff;stroke-width:1.5;" x="360.554759" xlink:href="#m825d0b5e04" y="177.474051"/>
     <use style="fill:#0000ff;stroke:#0000ff;stroke-width:1.5;" x="368.15989" xlink:href="#m825d0b5e04" y="274.060696"/>
     <use style="fill:#0000ff;stroke:#0000ff;stroke-width:1.5;" x="257.117658" xlink:href="#m825d0b5e04" y="245.272581"/>
     <use style="fill:#0000ff;stroke:#0000ff;stroke-width:1.5;" x="305.385423" xlink:href="#m825d0b5e04" y="273.213384"/>
     <use style="fill:#0000ff;stroke:#0000ff;stroke-width:1.5;" x="340.109391" xlink:href="#m825d0b5e04" y="214.193831"/>
     <use style="fill:#0000ff;stroke:#0000ff;stroke-width:1.5;" x="354.019544" xlink:href="#m825d0b5e04" y="228.169663"/>
     <use style="fill:#0000ff;stroke:#0000ff;stroke-width:1.5;" x="324.551115" xlink:href="#m825d0b5e04" y="273.459298"/>
     <use style="fill:#0000ff;stroke:#0000ff;stroke-width:1.5;" x="308.223791" xlink:href="#m825d0b5e04" y="292.180669"/>
     <use style="fill:#0000ff;stroke:#0000ff;stroke-width:1.5;" x="355.468784" xlink:href="#m825d0b5e04" y="215.134338"/>
     <use style="fill:#0000ff;stroke:#0000ff;stroke-width:1.5;" x="290.942847" xlink:href="#m825d0b5e04" y="237.337427"/>
     <use style="fill:#0000ff;stroke:#0000ff;stroke-width:1.5;" x="315.647191" xlink:href="#m825d0b5e04" y="333.035889"/>
     <use style="fill:#0000ff;stroke:#0000ff;stroke-width:1.5;" x="317.614969" xlink:href="#m825d0b5e04" y="263.93622"/>
     <use style="fill:#0000ff;stroke:#0000ff;stroke-width:1.5;" x="381.559226" xlink:href="#m825d0b5e04" y="282.132509"/>
     <use style="fill:#0000ff;stroke:#0000ff;stroke-width:1.5;" x="348.297317" xlink:href="#m825d0b5e04" y="267.408555"/>
     <use style="fill:#0000ff;stroke:#0000ff;stroke-width:1.5;" x="294.762561" xlink:href="#m825d0b5e04" y="326.235273"/>
     <use style="fill:#0000ff;stroke:#0000ff;stroke-width:1.5;" x="342.759479" xlink:href="#m825d0b5e04" y="153.079666"/>
     <use style="fill:#0000ff;stroke:#0000ff;stroke-width:1.5;" x="277.810983" xlink:href="#m825d0b5e04" y="196.710523"/>
     <use style="fill:#0000ff;stroke:#0000ff;stroke-width:1.5;" x="310.579031" xlink:href="#m825d0b5e04" y="343.665978"/>
     <use style="fill:#0000ff;stroke:#0000ff;stroke-width:1.5;" x="319.837105" xlink:href="#m825d0b5e04" y="192.254034"/>
     <use style="fill:#0000ff;stroke:#0000ff;stroke-width:1.5;" x="374.341007" xlink:href="#m825d0b5e04" y="223.541837"/>
     <use style="fill:#0000ff;stroke:#0000ff;stroke-width:1.5;" x="328.892869" xlink:href="#m825d0b5e04" y="318.780729"/>
     <use style="fill:#0000ff;stroke:#0000ff;stroke-width:1.5;" x="325.463823" xlink:href="#m825d0b5e04" y="300.554431"/>
     <use style="fill:#0000ff;stroke:#0000ff;stroke-width:1.5;" x="341.313366" xlink:href="#m825d0b5e04" y="254.227099"/>
     <use style="fill:#0000ff;stroke:#0000ff;stroke-width:1.5;" x="409.47786" xlink:href="#m825d0b5e04" y="291.709545"/>
     <use style="fill:#0000ff;stroke:#0000ff;stroke-width:1.5;" x="330.730683" xlink:href="#m825d0b5e04" y="231.039348"/>
     <use style="fill:#0000ff;stroke:#0000ff;stroke-width:1.5;" x="357.626075" xlink:href="#m825d0b5e04" y="312.978865"/>
     <use style="fill:#0000ff;stroke:#0000ff;stroke-width:1.5;" x="278.785724" xlink:href="#m825d0b5e04" y="219.087616"/>
     <use style="fill:#0000ff;stroke:#0000ff;stroke-width:1.5;" x="284.489583" xlink:href="#m825d0b5e04" y="274.939705"/>
     <use style="fill:#0000ff;stroke:#0000ff;stroke-width:1.5;" x="302.605344" xlink:href="#m825d0b5e04" y="359.162917"/>
     <use style="fill:#0000ff;stroke:#0000ff;stroke-width:1.5;" x="345.257845" xlink:href="#m825d0b5e04" y="360.869509"/>
     <use style="fill:#0000ff;stroke:#0000ff;stroke-width:1.5;" x="280.654794" xlink:href="#m825d0b5e04" y="371.122653"/>
     <use style="fill:#0000ff;stroke:#0000ff;stroke-width:1.5;" x="364.634295" xlink:href="#m825d0b5e04" y="147.706725"/>
     <use style="fill:#0000ff;stroke:#0000ff;stroke-width:1.5;" x="365.778041" xlink:href="#m825d0b5e04" y="333.514942"/>
     <use style="fill:#0000ff;stroke:#0000ff;stroke-width:1.5;" x="317.625551" xlink:href="#m825d0b5e04" y="273.442451"/>
     <use style="fill:#0000ff;stroke:#0000ff;stroke-width:1.5;" x="301.073569" xlink:href="#m825d0b5e04" y="276.514894"/>
     <use style="fill:#0000ff;stroke:#0000ff;stroke-width:1.5;" x="352.852114" xlink:href="#m825d0b5e04" y="280.551882"/>
     <use style="fill:#0000ff;stroke:#0000ff;stroke-width:1.5;" x="391.385835" xlink:href="#m825d0b5e04" y="329.211084"/>
     <use style="fill:#0000ff;stroke:#0000ff;stroke-width:1.5;" x="318.552556" xlink:href="#m825d0b5e04" y="302.048641"/>
     <use style="fill:#0000ff;stroke:#0000ff;stroke-width:1.5;" x="285.926759" xlink:href="#m825d0b5e04" y="343.165463"/>
     <use style="fill:#0000ff;stroke:#0000ff;stroke-width:1.5;" x="372.254003" xlink:href="#m825d0b5e04" y="237.088931"/>
     <use style="fill:#0000ff;stroke:#0000ff;stroke-width:1.5;" x="289.114551" xlink:href="#m825d0b5e04" y="313.486032"/>
     <use style="fill:#0000ff;stroke:#0000ff;stroke-width:1.5;" x="329.732297" xlink:href="#m825d0b5e04" y="234.131856"/>
     <use style="fill:#0000ff;stroke:#0000ff;stroke-width:1.5;" x="304.243589" xlink:href="#m825d0b5e04" y="288.35103"/>
     <use style="fill:#0000ff;stroke:#0000ff;stroke-width:1.5;" x="315.286704" xlink:href="#m825d0b5e04" y="298.69058"/>
     <use style="fill:#0000ff;stroke:#0000ff;stroke-width:1.5;" x="269.925044" xlink:href="#m825d0b5e04" y="236.226782"/>
     <use style="fill:#0000ff;stroke:#0000ff;stroke-width:1.5;" x="363.279281" xlink:href="#m825d0b5e04" y="234.403481"/>
     <use style="fill:#0000ff;stroke:#0000ff;stroke-width:1.5;" x="381.843431" xlink:href="#m825d0b5e04" y="360.896525"/>
     <use style="fill:#0000ff;stroke:#0000ff;stroke-width:1.5;" x="371.58196" xlink:href="#m825d0b5e04" y="224.492269"/>
     <use style="fill:#0000ff;stroke:#0000ff;stroke-width:1.5;" x="384.710643" xlink:href="#m825d0b5e04" y="319.308402"/>
     <use style="fill:#0000ff;stroke:#0000ff;stroke-width:1.5;" x="340.928839" xlink:href="#m825d0b5e04" y="327.419338"/>
     <use style="fill:#0000ff;stroke:#0000ff;stroke-width:1.5;" x="343.814413" xlink:href="#m825d0b5e04" y="351.990592"/>
     <use style="fill:#0000ff;stroke:#0000ff;stroke-width:1.5;" x="276.685747" xlink:href="#m825d0b5e04" y="252.415599"/>
     <use style="fill:#0000ff;stroke:#0000ff;stroke-width:1.5;" x="344.835125" xlink:href="#m825d0b5e04" y="314.822782"/>
     <use style="fill:#0000ff;stroke:#0000ff;stroke-width:1.5;" x="274.36953" xlink:href="#m825d0b5e04" y="294.569673"/>
     <use style="fill:#0000ff;stroke:#0000ff;stroke-width:1.5;" x="275.494112" xlink:href="#m825d0b5e04" y="241.188869"/>
     <use style="fill:#0000ff;stroke:#0000ff;stroke-width:1.5;" x="356.601823" xlink:href="#m825d0b5e04" y="243.252346"/>
     <use style="fill:#0000ff;stroke:#0000ff;stroke-width:1.5;" x="314.118157" xlink:href="#m825d0b5e04" y="238.230999"/>
     <use style="fill:#0000ff;stroke:#0000ff;stroke-width:1.5;" x="349.027062" xlink:href="#m825d0b5e04" y="244.835437"/>
     <use style="fill:#0000ff;stroke:#0000ff;stroke-width:1.5;" x="281.65445" xlink:href="#m825d0b5e04" y="299.617057"/>
     <use style="fill:#0000ff;stroke:#0000ff;stroke-width:1.5;" x="339.795302" xlink:href="#m825d0b5e04" y="239.574516"/>
     <use style="fill:#0000ff;stroke:#0000ff;stroke-width:1.5;" x="357.316615" xlink:href="#m825d0b5e04" y="293.776338"/>
     <use style="fill:#0000ff;stroke:#0000ff;stroke-width:1.5;" x="369.949037" xlink:href="#m825d0b5e04" y="144.399336"/>
     <use style="fill:#0000ff;stroke:#0000ff;stroke-width:1.5;" x="-1" xlink:href="#m825d0b5e04" y="282.308655"/>
     <use style="fill:#0000ff;stroke:#0000ff;stroke-width:1.5;" x="-1" xlink:href="#m825d0b5e04" y="307.689057"/>
     <use style="fill:#0000ff;stroke:#0000ff;stroke-width:1.5;" x="399.241375" xlink:href="#m825d0b5e04" y="195.761442"/>
     <use style="fill:#0000ff;stroke:#0000ff;stroke-width:1.5;" x="365.166518" xlink:href="#m825d0b5e04" y="156.94011"/>
     <use style="fill:#0000ff;stroke:#0000ff;stroke-width:1.5;" x="343.361539" xlink:href="#m825d0b5e04" y="231.877604"/>
     <use style="fill:#0000ff;stroke:#0000ff;stroke-width:1.5;" x="298.656424" xlink:href="#m825d0b5e04" y="336.811507"/>
     <use style="fill:#0000ff;stroke:#0000ff;stroke-width:1.5;" x="443.047515" xlink:href="#m825d0b5e04" y="247.693386"/>
     <use style="fill:#0000ff;stroke:#0000ff;stroke-width:1.5;" x="335.289314" xlink:href="#m825d0b5e04" y="346.679462"/>
     <use style="fill:#0000ff;stroke:#0000ff;stroke-width:1.5;" x="296.575534" xlink:href="#m825d0b5e04" y="220.010205"/>
     <use style="fill:#0000ff;stroke:#0000ff;stroke-width:1.5;" x="366.299475" xlink:href="#m825d0b5e04" y="246.018245"/>
     <use style="fill:#0000ff;stroke:#0000ff;stroke-width:1.5;" x="347.538072" xlink:href="#m825d0b5e04" y="390.638234"/>
     <use style="fill:#0000ff;stroke:#0000ff;stroke-width:1.5;" x="300.962847" xlink:href="#m825d0b5e04" y="380.013517"/>
     <use style="fill:#0000ff;stroke:#0000ff;stroke-width:1.5;" x="316.734722" xlink:href="#m825d0b5e04" y="234.008169"/>
     <use style="fill:#0000ff;stroke:#0000ff;stroke-width:1.5;" x="325.869943" xlink:href="#m825d0b5e04" y="288.672317"/>
     <use style="fill:#0000ff;stroke:#0000ff;stroke-width:1.5;" x="246.755185" xlink:href="#m825d0b5e04" y="350.400275"/>
     <use style="fill:#0000ff;stroke:#0000ff;stroke-width:1.5;" x="371.804439" xlink:href="#m825d0b5e04" y="246.708536"/>
     <use style="fill:#0000ff;stroke:#0000ff;stroke-width:1.5;" x="292.706017" xlink:href="#m825d0b5e04" y="255.573786"/>
     <use style="fill:#0000ff;stroke:#0000ff;stroke-width:1.5;" x="304.516697" xlink:href="#m825d0b5e04" y="220.004953"/>
     <use style="fill:#0000ff;stroke:#0000ff;stroke-width:1.5;" x="322.55039" xlink:href="#m825d0b5e04" y="312.4736"/>
     <use style="fill:#0000ff;stroke:#0000ff;stroke-width:1.5;" x="310.962125" xlink:href="#m825d0b5e04" y="353.702338"/>
     <use style="fill:#0000ff;stroke:#0000ff;stroke-width:1.5;" x="322.342976" xlink:href="#m825d0b5e04" y="310.101037"/>
     <use style="fill:#0000ff;stroke:#0000ff;stroke-width:1.5;" x="294.689419" xlink:href="#m825d0b5e04" y="351.922561"/>
     <use style="fill:#0000ff;stroke:#0000ff;stroke-width:1.5;" x="340.926196" xlink:href="#m825d0b5e04" y="194.539871"/>
     <use style="fill:#0000ff;stroke:#0000ff;stroke-width:1.5;" x="343.86469" xlink:href="#m825d0b5e04" y="284.920059"/>
     <use style="fill:#0000ff;stroke:#0000ff;stroke-width:1.5;" x="297.026164" xlink:href="#m825d0b5e04" y="351.468646"/>
     <use style="fill:#0000ff;stroke:#0000ff;stroke-width:1.5;" x="308.318691" xlink:href="#m825d0b5e04" y="283.256604"/>
     <use style="fill:#0000ff;stroke:#0000ff;stroke-width:1.5;" x="358.835164" xlink:href="#m825d0b5e04" y="325.994218"/>
     <use style="fill:#0000ff;stroke:#0000ff;stroke-width:1.5;" x="282.294377" xlink:href="#m825d0b5e04" y="181.929348"/>
     <use style="fill:#0000ff;stroke:#0000ff;stroke-width:1.5;" x="326.444546" xlink:href="#m825d0b5e04" y="429.315364"/>
     <use style="fill:#0000ff;stroke:#0000ff;stroke-width:1.5;" x="346.630632" xlink:href="#m825d0b5e04" y="251.480949"/>
     <use style="fill:#0000ff;stroke:#0000ff;stroke-width:1.5;" x="269.580791" xlink:href="#m825d0b5e04" y="333.165214"/>
     <use style="fill:#0000ff;stroke:#0000ff;stroke-width:1.5;" x="291.365827" xlink:href="#m825d0b5e04" y="310.481636"/>
     <use style="fill:#0000ff;stroke:#0000ff;stroke-width:1.5;" x="338.663673" xlink:href="#m825d0b5e04" y="334.578216"/>
     <use style="fill:#0000ff;stroke:#0000ff;stroke-width:1.5;" x="365.839581" xlink:href="#m825d0b5e04" y="363.900007"/>
     <use style="fill:#0000ff;stroke:#0000ff;stroke-width:1.5;" x="322.634501" xlink:href="#m825d0b5e04" y="280.210755"/>
     <use style="fill:#0000ff;stroke:#0000ff;stroke-width:1.5;" x="318.596317" xlink:href="#m825d0b5e04" y="436.121403"/>
     <use style="fill:#0000ff;stroke:#0000ff;stroke-width:1.5;" x="417.200898" xlink:href="#m825d0b5e04" y="327.20023"/>
     <use style="fill:#0000ff;stroke:#0000ff;stroke-width:1.5;" x="348.301008" xlink:href="#m825d0b5e04" y="288.941644"/>
     <use style="fill:#0000ff;stroke:#0000ff;stroke-width:1.5;" x="350.127729" xlink:href="#m825d0b5e04" y="299.141512"/>
     <use style="fill:#0000ff;stroke:#0000ff;stroke-width:1.5;" x="318.793191" xlink:href="#m825d0b5e04" y="197.835958"/>
     <use style="fill:#0000ff;stroke:#0000ff;stroke-width:1.5;" x="319.336207" xlink:href="#m825d0b5e04" y="364.099052"/>
     <use style="fill:#0000ff;stroke:#0000ff;stroke-width:1.5;" x="318.675232" xlink:href="#m825d0b5e04" y="162.91891"/>
     <use style="fill:#0000ff;stroke:#0000ff;stroke-width:1.5;" x="366.24499" xlink:href="#m825d0b5e04" y="168.171508"/>
     <use style="fill:#0000ff;stroke:#0000ff;stroke-width:1.5;" x="279.980492" xlink:href="#m825d0b5e04" y="210.327157"/>
     <use style="fill:#0000ff;stroke:#0000ff;stroke-width:1.5;" x="331.4787" xlink:href="#m825d0b5e04" y="287.595394"/>
     <use style="fill:#0000ff;stroke:#0000ff;stroke-width:1.5;" x="260.346449" xlink:href="#m825d0b5e04" y="311.482158"/>
     <use style="fill:#0000ff;stroke:#0000ff;stroke-width:1.5;" x="400.717736" xlink:href="#m825d0b5e04" y="176.804902"/>
     <use style="fill:#0000ff;stroke:#0000ff;stroke-width:1.5;" x="308.558068" xlink:href="#m825d0b5e04" y="296.921051"/>
     <use style="fill:#0000ff;stroke:#0000ff;stroke-width:1.5;" x="303.456915" xlink:href="#m825d0b5e04" y="252.974841"/>
     <use style="fill:#0000ff;stroke:#0000ff;stroke-width:1.5;" x="396.524581" xlink:href="#m825d0b5e04" y="287.777751"/>
     <use style="fill:#0000ff;stroke:#0000ff;stroke-width:1.5;" x="381.910012" xlink:href="#m825d0b5e04" y="428.343442"/>
     <use style="fill:#0000ff;stroke:#0000ff;stroke-width:1.5;" x="328.988911" xlink:href="#m825d0b5e04" y="366.780986"/>
     <use style="fill:#0000ff;stroke:#0000ff;stroke-width:1.5;" x="284.171736" xlink:href="#m825d0b5e04" y="360.242236"/>
     <use style="fill:#0000ff;stroke:#0000ff;stroke-width:1.5;" x="298.263669" xlink:href="#m825d0b5e04" y="413.168966"/>
     <use style="fill:#0000ff;stroke:#0000ff;stroke-width:1.5;" x="299.503886" xlink:href="#m825d0b5e04" y="334.251105"/>
     <use style="fill:#0000ff;stroke:#0000ff;stroke-width:1.5;" x="273.218436" xlink:href="#m825d0b5e04" y="264.578311"/>
     <use style="fill:#0000ff;stroke:#0000ff;stroke-width:1.5;" x="305.829916" xlink:href="#m825d0b5e04" y="296.831338"/>
     <use style="fill:#0000ff;stroke:#0000ff;stroke-width:1.5;" x="352.56021" xlink:href="#m825d0b5e04" y="395.866936"/>
     <use style="fill:#0000ff;stroke:#0000ff;stroke-width:1.5;" x="296.109152" xlink:href="#m825d0b5e04" y="453.901287"/>
     <use style="fill:#0000ff;stroke:#0000ff;stroke-width:1.5;" x="319.054823" xlink:href="#m825d0b5e04" y="306.333029"/>
     <use style="fill:#0000ff;stroke:#0000ff;stroke-width:1.5;" x="319.744305" xlink:href="#m825d0b5e04" y="299.855708"/>
     <use style="fill:#0000ff;stroke:#0000ff;stroke-width:1.5;" x="318.462963" xlink:href="#m825d0b5e04" y="359.707582"/>
     <use style="fill:#0000ff;stroke:#0000ff;stroke-width:1.5;" x="293.166021" xlink:href="#m825d0b5e04" y="196.621647"/>
     <use style="fill:#0000ff;stroke:#0000ff;stroke-width:1.5;" x="310.463361" xlink:href="#m825d0b5e04" y="181.309261"/>
     <use style="fill:#0000ff;stroke:#0000ff;stroke-width:1.5;" x="228.700021" xlink:href="#m825d0b5e04" y="398.185707"/>
     <use style="fill:#0000ff;stroke:#0000ff;stroke-width:1.5;" x="354.816429" xlink:href="#m825d0b5e04" y="384.939"/>
     <use style="fill:#0000ff;stroke:#0000ff;stroke-width:1.5;" x="338.650696" xlink:href="#m825d0b5e04" y="315.063813"/>
     <use style="fill:#0000ff;stroke:#0000ff;stroke-width:1.5;" x="327.11449" xlink:href="#m825d0b5e04" y="278.066811"/>
     <use style="fill:#0000ff;stroke:#0000ff;stroke-width:1.5;" x="305.622293" xlink:href="#m825d0b5e04" y="360.651275"/>
     <use style="fill:#0000ff;stroke:#0000ff;stroke-width:1.5;" x="297.431873" xlink:href="#m825d0b5e04" y="275.784373"/>
     <use style="fill:#0000ff;stroke:#0000ff;stroke-width:1.5;" x="290.045763" xlink:href="#m825d0b5e04" y="280.088009"/>
     <use style="fill:#0000ff;stroke:#0000ff;stroke-width:1.5;" x="368.35538" xlink:href="#m825d0b5e04" y="263.739862"/>
     <use style="fill:#0000ff;stroke:#0000ff;stroke-width:1.5;" x="353.231972" xlink:href="#m825d0b5e04" y="227.303047"/>
     <use style="fill:#0000ff;stroke:#0000ff;stroke-width:1.5;" x="329.417022" xlink:href="#m825d0b5e04" y="243.138628"/>
     <use style="fill:#0000ff;stroke:#0000ff;stroke-width:1.5;" x="365.707564" xlink:href="#m825d0b5e04" y="227.521346"/>
     <use style="fill:#0000ff;stroke:#0000ff;stroke-width:1.5;" x="334.802643" xlink:href="#m825d0b5e04" y="232.75895"/>
     <use style="fill:#0000ff;stroke:#0000ff;stroke-width:1.5;" x="341.404592" xlink:href="#m825d0b5e04" y="163.651913"/>
     <use style="fill:#0000ff;stroke:#0000ff;stroke-width:1.5;" x="416.592087" xlink:href="#m825d0b5e04" y="251.991362"/>
     <use style="fill:#0000ff;stroke:#0000ff;stroke-width:1.5;" x="339.156697" xlink:href="#m825d0b5e04" y="310.150656"/>
     <use style="fill:#0000ff;stroke:#0000ff;stroke-width:1.5;" x="376.987718" xlink:href="#m825d0b5e04" y="251.40081"/>
     <use style="fill:#0000ff;stroke:#0000ff;stroke-width:1.5;" x="336.885958" xlink:href="#m825d0b5e04" y="353.533266"/>
     <use style="fill:#0000ff;stroke:#0000ff;stroke-width:1.5;" x="377.227299" xlink:href="#m825d0b5e04" y="215.692566"/>
     <use style="fill:#0000ff;stroke:#0000ff;stroke-width:1.5;" x="371.417895" xlink:href="#m825d0b5e04" y="352.219902"/>
     <use style="fill:#0000ff;stroke:#0000ff;stroke-width:1.5;" x="315.092269" xlink:href="#m825d0b5e04" y="321.95167"/>
    </g>
   </g>
   <g id="PathCollection_2">
    <defs>
     <path d="M 0 3 
C 0.795609 3 1.55874 2.683901 2.12132 2.12132 
C 2.683901 1.55874 3 0.795609 3 0 
C 3 -0.795609 2.683901 -1.55874 2.12132 -2.12132 
C 1.55874 -2.683901 0.795609 -3 0 -3 
C -0.795609 -3 -1.55874 -2.683901 -2.12132 -2.12132 
C -2.683901 -1.55874 -3 -0.795609 -3 0 
C -3 0.795609 -2.683901 1.55874 -2.12132 2.12132 
C -1.55874 2.683901 -0.795609 3 0 3 
z
" id="m30aa3e65d9" style="stroke:#ff0000;"/>
    </defs>
    <g clip-path="url(#p876f16bc47)">
     <use style="fill:#ff0000;stroke:#ff0000;" x="313.820312" xlink:href="#m30aa3e65d9" y="275"/>
    </g>
   </g>
   <g id="patch_3">
    <path clip-path="url(#p876f16bc47)" d="M 313.820312 388.804688 
C 344.060718 388.804688 373.066625 376.813508 394.449821 355.472066 
C 415.833016 334.130625 427.847656 305.181356 427.847656 275 
C 427.847656 244.818644 415.833016 215.869375 394.449821 194.527934 
C 373.066625 173.186492 344.060718 161.195312 313.820312 161.195312 
C 283.579907 161.195312 254.574 173.186492 233.190804 194.527934 
C 211.807609 215.869375 199.792969 244.818644 199.792969 275 
C 199.792969 305.181356 211.807609 334.130625 233.190804 355.472066 
C 254.574 376.813508 283.579907 388.804688 313.820312 388.804688 
z
" style="fill:none;stroke:#ff0000;stroke-linejoin:miter;"/>
   </g>
   <g id="matplotlib.axis_1">
    <g id="xtick_1">
     <g id="line2d_1">
      <path clip-path="url(#p876f16bc47)" d="M 85.765625 502.609375 
L 85.765625 47.390625 
" style="fill:none;stroke:#b0b0b0;stroke-linecap:square;stroke-width:0.8;"/>
     </g>
     <g id="line2d_2">
      <defs>
       <path d="M 0 0 
L 0 3.5 
" id="m8f1c664dd1" style="stroke:#000000;stroke-width:0.8;"/>
      </defs>
      <g>
       <use style="stroke:#000000;stroke-width:0.8;" x="85.765625" xlink:href="#m8f1c664dd1" y="502.609375"/>
      </g>
     </g>
     <g id="text_1">
      <!-- −15 -->
      <defs>
       <path d="M 3 22 
L 3 28.59375 
L 53.40625 28.59375 
L 53.40625 22 
z
" id="FreeSerif-8722"/>
       <path d="M 18.296875 59.296875 
Q 16.5 59.296875 11.09375 57.09375 
L 11.09375 58.5 
L 29.09375 67.59375 
L 29.90625 67.40625 
L 29.90625 7.40625 
Q 29.90625 3.796875 31.703125 2.6875 
Q 33.5 1.59375 39.40625 1.5 
L 39.40625 0 
L 11.796875 0 
L 11.796875 1.5 
Q 17.40625 1.703125 19.34375 3.140625 
Q 21.296875 4.59375 21.296875 9.296875 
L 21.296875 54.59375 
Q 21.296875 59.296875 18.296875 59.296875 
z
" id="FreeSerif-49"/>
       <path d="M 35.703125 19.40625 
Q 35.703125 24.703125 33.34375 28.796875 
Q 31 32.90625 27.640625 35.15625 
Q 24.296875 37.40625 20.140625 38.84375 
Q 16 40.296875 12.953125 40.75 
Q 9.90625 41.203125 7.59375 41.203125 
Q 6.40625 41.203125 6.40625 42 
Q 6.40625 42.296875 6.5 42.5 
L 17.40625 66.203125 
L 38.296875 66.203125 
Q 39.90625 66.203125 40.84375 66.703125 
Q 41.796875 67.203125 42.90625 68.796875 
L 43.796875 68.09375 
L 40 59.203125 
Q 39.59375 58.296875 37.703125 58.296875 
L 18.09375 58.296875 
L 13.90625 49.796875 
Q 28.5 47.203125 35.59375 41.34375 
Q 42.703125 35.5 42.703125 24.203125 
Q 42.703125 18.296875 40.84375 13.6875 
Q 39 9.09375 36.140625 6.296875 
Q 33.296875 3.5 29.546875 1.703125 
Q 25.796875 -0.09375 22.34375 -0.75 
Q 18.90625 -1.40625 15.40625 -1.40625 
Q 9.796875 -1.40625 6.5 0.25 
Q 3.203125 1.90625 3.203125 4.796875 
Q 3.203125 8.5 7.5 8.5 
Q 10.296875 8.5 14.75 5.390625 
Q 19.203125 2.296875 21.796875 2.296875 
Q 27.703125 2.296875 31.703125 7.25 
Q 35.703125 12.203125 35.703125 19.40625 
z
" id="FreeSerif-53"/>
      </defs>
      <g transform="translate(71.689063 521.902812)scale(0.18 -0.18)">
       <use xlink:href="#FreeSerif-8722"/>
       <use x="56.399994" xlink:href="#FreeSerif-49"/>
       <use x="106.399979" xlink:href="#FreeSerif-53"/>
      </g>
     </g>
    </g>
    <g id="xtick_2">
     <g id="line2d_3">
      <path clip-path="url(#p876f16bc47)" d="M 161.783854 502.609375 
L 161.783854 47.390625 
" style="fill:none;stroke:#b0b0b0;stroke-linecap:square;stroke-width:0.8;"/>
     </g>
     <g id="line2d_4">
      <g>
       <use style="stroke:#000000;stroke-width:0.8;" x="161.783854" xlink:href="#m8f1c664dd1" y="502.609375"/>
      </g>
     </g>
     <g id="text_2">
      <!-- −10 -->
      <defs>
       <path d="M 47.59375 17.796875 
Q 35.203125 -1.40625 25 -1.40625 
Q 14.796875 -1.40625 8.59375 8.390625 
Q 2.40625 18.203125 2.40625 33.59375 
Q 2.40625 48.09375 8.59375 57.84375 
Q 14.796875 67.59375 25.40625 67.59375 
Q 35.203125 67.59375 41.390625 58 
Q 47.59375 48.40625 47.59375 33 
Q 47.59375 17.796875 35.203125 -1.40625 
z
M 25.09375 65 
Q 12 65 12 32.703125 
Q 12 1.203125 25 1.203125 
Q 38 1.203125 38 32.796875 
Q 38 48.5 34.703125 56.75 
Q 31.40625 65 25.09375 65 
z
" id="FreeSerif-48"/>
      </defs>
      <g transform="translate(147.707292 521.902812)scale(0.18 -0.18)">
       <use xlink:href="#FreeSerif-8722"/>
       <use x="56.399994" xlink:href="#FreeSerif-49"/>
       <use x="106.399979" xlink:href="#FreeSerif-48"/>
      </g>
     </g>
    </g>
    <g id="xtick_3">
     <g id="line2d_5">
      <path clip-path="url(#p876f16bc47)" d="M 237.802083 502.609375 
L 237.802083 47.390625 
" style="fill:none;stroke:#b0b0b0;stroke-linecap:square;stroke-width:0.8;"/>
     </g>
     <g id="line2d_6">
      <g>
       <use style="stroke:#000000;stroke-width:0.8;" x="237.802083" xlink:href="#m8f1c664dd1" y="502.609375"/>
      </g>
     </g>
     <g id="text_3">
      <!-- −5 -->
      <g transform="translate(228.225521 521.902812)scale(0.18 -0.18)">
       <use xlink:href="#FreeSerif-8722"/>
       <use x="56.399994" xlink:href="#FreeSerif-53"/>
      </g>
     </g>
    </g>
    <g id="xtick_4">
     <g id="line2d_7">
      <path clip-path="url(#p876f16bc47)" d="M 313.820312 502.609375 
L 313.820312 47.390625 
" style="fill:none;stroke:#b0b0b0;stroke-linecap:square;stroke-width:0.8;"/>
     </g>
     <g id="line2d_8">
      <g>
       <use style="stroke:#000000;stroke-width:0.8;" x="313.820312" xlink:href="#m8f1c664dd1" y="502.609375"/>
      </g>
     </g>
     <g id="text_4">
      <!-- 0 -->
      <g transform="translate(309.320312 521.902812)scale(0.18 -0.18)">
       <use xlink:href="#FreeSerif-48"/>
      </g>
     </g>
    </g>
    <g id="xtick_5">
     <g id="line2d_9">
      <path clip-path="url(#p876f16bc47)" d="M 389.838542 502.609375 
L 389.838542 47.390625 
" style="fill:none;stroke:#b0b0b0;stroke-linecap:square;stroke-width:0.8;"/>
     </g>
     <g id="line2d_10">
      <g>
       <use style="stroke:#000000;stroke-width:0.8;" x="389.838542" xlink:href="#m8f1c664dd1" y="502.609375"/>
      </g>
     </g>
     <g id="text_5">
      <!-- 5 -->
      <g transform="translate(385.338542 521.902812)scale(0.18 -0.18)">
       <use xlink:href="#FreeSerif-53"/>
      </g>
     </g>
    </g>
    <g id="xtick_6">
     <g id="line2d_11">
      <path clip-path="url(#p876f16bc47)" d="M 465.856771 502.609375 
L 465.856771 47.390625 
" style="fill:none;stroke:#b0b0b0;stroke-linecap:square;stroke-width:0.8;"/>
     </g>
     <g id="line2d_12">
      <g>
       <use style="stroke:#000000;stroke-width:0.8;" x="465.856771" xlink:href="#m8f1c664dd1" y="502.609375"/>
      </g>
     </g>
     <g id="text_6">
      <!-- 10 -->
      <g transform="translate(456.856771 521.902812)scale(0.18 -0.18)">
       <use xlink:href="#FreeSerif-49"/>
       <use x="49.999985" xlink:href="#FreeSerif-48"/>
      </g>
     </g>
    </g>
    <g id="xtick_7">
     <g id="line2d_13">
      <path clip-path="url(#p876f16bc47)" d="M 541.875 502.609375 
L 541.875 47.390625 
" style="fill:none;stroke:#b0b0b0;stroke-linecap:square;stroke-width:0.8;"/>
     </g>
     <g id="line2d_14">
      <g>
       <use style="stroke:#000000;stroke-width:0.8;" x="541.875" xlink:href="#m8f1c664dd1" y="502.609375"/>
      </g>
     </g>
     <g id="text_7">
      <!-- 15 -->
      <g transform="translate(532.875 521.902812)scale(0.18 -0.18)">
       <use xlink:href="#FreeSerif-49"/>
       <use x="49.999985" xlink:href="#FreeSerif-53"/>
      </g>
     </g>
    </g>
    <g id="text_8">
     <!-- X coordinate error (cm) -->
     <defs>
      <path d="M 69.59375 66.203125 
L 69.59375 64.296875 
Q 64.703125 64 62.046875 62.34375 
Q 59.40625 60.703125 54.703125 54.90625 
L 40.09375 36.703125 
L 59.296875 9.296875 
Q 62.296875 5 64.296875 3.703125 
Q 66.296875 2.40625 70.40625 1.90625 
L 70.40625 0 
L 40.703125 0 
L 40.703125 1.90625 
Q 44.796875 2.296875 46.59375 2.9375 
Q 48.40625 3.59375 48.40625 5 
Q 48.40625 7.203125 43.296875 14.796875 
L 33.796875 28.796875 
L 21.90625 14 
Q 16.703125 7.5 16.703125 5.40625 
Q 16.703125 3.703125 18.296875 2.953125 
Q 19.90625 2.203125 24.296875 1.90625 
L 24.296875 0 
L 1 0 
L 1 1.90625 
Q 4.90625 2.203125 7 3.796875 
Q 9.09375 5.40625 15.5 13.296875 
L 31.203125 32.59375 
L 20.296875 48.59375 
Q 13.296875 58.90625 10.25 61.5 
Q 7.203125 64.09375 2.203125 64.296875 
L 2.203125 66.203125 
L 32.40625 66.203125 
L 32.40625 64.296875 
L 29.59375 64.203125 
Q 24.796875 64.09375 24.796875 61.296875 
Q 24.796875 58.09375 33.296875 46.296875 
L 37.5 40.40625 
L 48.796875 54.203125 
Q 52.796875 59.203125 52.796875 61.09375 
Q 52.796875 62.796875 51.34375 63.4375 
Q 49.90625 64.09375 45.796875 64.296875 
L 45.796875 66.203125 
z
" id="FreeSerif-88"/>
      <path id="FreeSerif-32"/>
      <path d="M 2.5 21.296875 
Q 2.5 32.40625 9.046875 39.203125 
Q 15.59375 46 24.40625 46 
Q 30.703125 46 35.25 42.953125 
Q 39.796875 39.90625 39.796875 35.703125 
Q 39.796875 34 38.390625 32.75 
Q 37 31.5 35 31.5 
Q 31.59375 31.5 30.296875 36.09375 
L 29.703125 38.296875 
Q 28.90625 41.09375 27.703125 42.09375 
Q 26.5 43.09375 23.796875 43.09375 
Q 17.703125 43.09375 13.953125 38.25 
Q 10.203125 33.40625 10.203125 25.703125 
Q 10.203125 17.09375 14.546875 11.640625 
Q 18.90625 6.203125 25.703125 6.203125 
Q 30 6.203125 33.09375 8.25 
Q 36.203125 10.296875 39.796875 15.59375 
L 41.203125 14.703125 
Q 40.203125 12.703125 39.453125 11.390625 
Q 38.703125 10.09375 36.75 7.5 
Q 34.796875 4.90625 32.890625 3.296875 
Q 31 1.703125 27.890625 0.34375 
Q 24.796875 -1 21.5 -1 
Q 13.203125 -1 7.84375 5.25 
Q 2.5 11.5 2.5 21.296875 
z
" id="FreeSerif-99"/>
      <path d="M 24.59375 46 
Q 34.203125 46 40.390625 39.59375 
Q 46.59375 33.203125 46.59375 23.40625 
Q 46.59375 13 40.1875 6 
Q 33.796875 -1 24.390625 -1 
Q 15 -1 8.75 5.75 
Q 2.5 12.5 2.5 22.59375 
Q 2.5 32.90625 8.640625 39.453125 
Q 14.796875 46 24.59375 46 
z
M 11.5 27.5 
Q 11.5 16.796875 15.390625 9.296875 
Q 19.296875 1.796875 25.59375 1.796875 
Q 31.203125 1.796875 34.390625 6.59375 
Q 37.59375 11.40625 37.59375 19.90625 
Q 37.59375 30.203125 33.59375 36.703125 
Q 29.59375 43.203125 23.296875 43.203125 
Q 18 43.203125 14.75 38.890625 
Q 11.5 34.59375 11.5 27.5 
z
" id="FreeSerif-111"/>
      <path d="M 30.09375 36.203125 
Q 28.59375 36.203125 26.390625 37.953125 
Q 24.203125 39.703125 23.5 39.703125 
Q 21.5 39.703125 19 36.796875 
Q 16.5 33.90625 16.5 31.5 
L 16.5 9 
Q 16.5 4.703125 18.203125 3.203125 
Q 19.90625 1.703125 25 1.5 
L 25 0 
L 1 0 
L 1 1.5 
Q 5.796875 2.40625 6.9375 3.5 
Q 8.09375 4.59375 8.09375 8.40625 
L 8.09375 33.40625 
Q 8.09375 36.703125 7.34375 38.046875 
Q 6.59375 39.40625 4.703125 39.40625 
Q 3.09375 39.40625 1.203125 39 
L 1.203125 40.59375 
Q 9.203125 43.203125 16 46 
L 16.5 45.796875 
L 16.5 36.59375 
Q 20.203125 41.90625 22.796875 43.953125 
Q 25.40625 46 28.5 46 
Q 31.09375 46 32.546875 44.59375 
Q 34 43.203125 34 40.703125 
Q 34 38.59375 32.953125 37.390625 
Q 31.90625 36.203125 30.09375 36.203125 
z
" id="FreeSerif-114"/>
      <path d="M 34.203125 -1 
L 33.796875 -0.703125 
L 33.796875 5.703125 
Q 29 -1 21 -1 
Q 12.703125 -1 7.59375 4.953125 
Q 2.5 10.90625 2.5 20.5 
Q 2.5 31.09375 8.59375 38.546875 
Q 14.703125 46 23.296875 46 
Q 28.703125 46 33.796875 41.703125 
L 33.796875 57.296875 
Q 33.796875 60.40625 32.890625 61.40625 
Q 32 62.40625 29.203125 62.40625 
Q 27.796875 62.40625 27 62.296875 
L 27 63.90625 
Q 36.09375 66.296875 41.703125 68.296875 
L 42.203125 68.09375 
L 42.203125 11.40625 
Q 42.203125 7.90625 43.046875 6.796875 
Q 43.90625 5.703125 46.59375 5.703125 
Q 47.09375 5.703125 48.90625 5.796875 
L 48.90625 4.203125 
z
M 24.90625 4.203125 
Q 28.703125 4.203125 31.25 6.34375 
Q 33.796875 8.5 33.796875 10.203125 
L 33.796875 33.203125 
Q 33.796875 37.203125 30.6875 40.203125 
Q 27.59375 43.203125 23.59375 43.203125 
Q 17.90625 43.203125 14.5 38.09375 
Q 11.09375 33 11.09375 24.5 
Q 11.09375 15.296875 14.890625 9.75 
Q 18.703125 4.203125 24.90625 4.203125 
z
" id="FreeSerif-100"/>
      <path d="M 6.203125 39.296875 
Q 4 39.296875 2 39 
L 2 40.5 
Q 9 42.5 17.5 46 
L 17.90625 45.703125 
L 17.90625 10.203125 
Q 17.90625 4.796875 19.15625 3.34375 
Q 20.40625 1.90625 25.296875 1.5 
L 25.296875 0 
L 1.59375 0 
L 1.59375 1.5 
Q 6.796875 1.796875 8.140625 3.296875 
Q 9.5 4.796875 9.5 10.203125 
L 9.5 33.40625 
Q 9.5 36.703125 8.75 38 
Q 8 39.296875 6.203125 39.296875 
z
M 12.796875 68.296875 
Q 15 68.296875 16.5 66.796875 
Q 18 65.296875 18 63.203125 
Q 18 61 16.5 59.546875 
Q 15 58.09375 12.796875 58.09375 
Q 10.703125 58.09375 9.25 59.59375 
Q 7.796875 61.09375 7.796875 63.1875 
Q 7.796875 65.296875 9.296875 66.796875 
Q 10.796875 68.296875 12.796875 68.296875 
z
" id="FreeSerif-105"/>
      <path d="M 1 39.796875 
L 1 41.5 
Q 8.40625 43.703125 14.796875 46 
L 15.5 45.796875 
L 15.5 37.90625 
Q 20.59375 42.703125 23.546875 44.34375 
Q 26.5 46 30 46 
Q 35.5 46 38.640625 42.046875 
Q 41.796875 38.09375 41.796875 31 
L 41.796875 8.09375 
Q 41.796875 4.40625 43 3.15625 
Q 44.203125 1.90625 47.90625 1.5 
L 47.90625 0 
L 27.09375 0 
L 27.09375 1.5 
Q 30.90625 1.796875 32.15625 3.5 
Q 33.40625 5.203125 33.40625 9.90625 
L 33.40625 30.796875 
Q 33.40625 40.5 26.09375 40.5 
Q 23.59375 40.5 21.5 39.34375 
Q 19.40625 38.203125 15.796875 34.796875 
L 15.796875 6.703125 
Q 15.796875 4 17.1875 2.890625 
Q 18.59375 1.796875 22.40625 1.5 
L 22.40625 0 
L 1.203125 0 
L 1.203125 1.5 
Q 5 1.796875 6.203125 3.25 
Q 7.40625 4.703125 7.40625 9 
L 7.40625 33.796875 
Q 7.40625 37.5 6.59375 38.84375 
Q 5.796875 40.203125 3.703125 40.203125 
Q 1.796875 40.203125 1 39.796875 
z
" id="FreeSerif-110"/>
      <path d="M 2.5 9.703125 
Q 2.5 11.5 2.890625 13.046875 
Q 3.296875 14.59375 4.296875 15.9375 
Q 5.296875 17.296875 6.1875 18.390625 
Q 7.09375 19.5 8.890625 20.640625 
Q 10.703125 21.796875 11.890625 22.546875 
Q 13.09375 23.296875 15.546875 24.34375 
Q 18 25.40625 19.296875 25.953125 
Q 20.59375 26.5 23.390625 27.59375 
Q 26.203125 28.703125 27.5 29.203125 
L 27.5 35.296875 
Q 27.5 43.59375 19.90625 43.59375 
Q 16.90625 43.59375 14.796875 42.140625 
Q 12.703125 40.703125 12.703125 38.703125 
Q 12.703125 37.90625 12.953125 36.5 
Q 13.203125 35.09375 13.203125 34.703125 
Q 13.203125 33 11.84375 31.75 
Q 10.5 30.5 8.703125 30.5 
Q 7 30.5 5.703125 31.796875 
Q 4.40625 33.09375 4.40625 34.796875 
Q 4.40625 39.5 9.25 42.75 
Q 14.09375 46 21.203125 46 
Q 29.40625 46 32.5 42.046875 
Q 35.59375 38.09375 35.59375 30 
L 35.59375 10.5 
Q 35.59375 7.203125 36.25 5.953125 
Q 36.90625 4.703125 38.59375 4.703125 
Q 40.703125 4.703125 43 6.59375 
L 43 4 
Q 40.40625 1.09375 38.453125 0.046875 
Q 36.5 -1 34 -1 
Q 30.90625 -1 29.453125 0.703125 
Q 28 2.40625 27.59375 6.296875 
Q 19 -1 13 -1 
Q 8.40625 -1 5.453125 2 
Q 2.5 5 2.5 9.703125 
z
M 27.5 12.296875 
L 27.5 26.796875 
Q 18.5 23.5 14.890625 20.390625 
Q 11.296875 17.296875 11.296875 12.90625 
Q 11.296875 8.796875 13.296875 6.796875 
Q 15.296875 4.796875 17.59375 4.796875 
Q 21 4.796875 24.90625 7.09375 
Q 26.5 8 27 9 
Q 27.5 10 27.5 12.296875 
z
" id="FreeSerif-97"/>
      <path d="M 25.90625 45 
L 25.90625 41.796875 
L 15.796875 41.796875 
L 15.796875 13.203125 
Q 15.796875 8.5 17 6.34375 
Q 18.203125 4.203125 21 4.203125 
Q 24.09375 4.203125 27 7.703125 
L 28.296875 6.59375 
Q 23.5 -1 16.296875 -1 
Q 7.40625 -1 7.40625 11.703125 
L 7.40625 41.796875 
L 2.09375 41.796875 
Q 1.703125 42.09375 1.703125 42.5 
Q 1.703125 43 2 43.296875 
Q 2.296875 43.59375 3.140625 44.140625 
Q 4 44.703125 5.203125 45.640625 
Q 6.40625 46.59375 8.5 49.09375 
Q 10.59375 51.59375 13.09375 55.09375 
Q 14.703125 57.40625 15.09375 57.90625 
Q 15.796875 57.90625 15.796875 56.59375 
L 15.796875 45 
z
" id="FreeSerif-116"/>
      <path d="M 9.703125 27.703125 
Q 9.90625 21.40625 11.40625 16.84375 
Q 12.90625 12.296875 15.296875 10.046875 
Q 17.703125 7.796875 20.140625 6.84375 
Q 22.59375 5.90625 25.296875 5.90625 
Q 30.09375 5.90625 33.640625 8.296875 
Q 37.203125 10.703125 40.796875 16.40625 
L 42.40625 15.703125 
Q 39.296875 7.59375 33.796875 3.296875 
Q 28.296875 -1 21.203125 -1 
Q 12.59375 -1 7.546875 5.046875 
Q 2.5 11.09375 2.5 21.40625 
Q 2.5 32.5 8.34375 39.25 
Q 14.203125 46 23.40625 46 
Q 31 46 35.203125 41.453125 
Q 39.40625 36.90625 40.5 27.703125 
z
M 9.90625 30.90625 
L 30.296875 30.90625 
Q 29.296875 37.40625 27.1875 39.90625 
Q 25.09375 42.40625 20.5 42.40625 
Q 11.5 42.40625 9.90625 30.90625 
z
" id="FreeSerif-101"/>
      <path d="M 29.203125 -17.703125 
Q 26.59375 -16.09375 23.796875 -13.84375 
Q 21 -11.59375 17.453125 -7.59375 
Q 13.90625 -3.59375 11.203125 0.953125 
Q 8.5 5.5 6.640625 11.890625 
Q 4.796875 18.296875 4.796875 25.203125 
Q 4.796875 32.40625 6.640625 38.84375 
Q 8.5 45.296875 11 49.546875 
Q 13.5 53.796875 17.34375 57.75 
Q 21.203125 61.703125 23.703125 63.59375 
Q 26.203125 65.5 29.5 67.59375 
L 30.40625 66 
Q 26 62.40625 23.296875 59.5 
Q 20.59375 56.59375 18.09375 51.9375 
Q 15.59375 47.296875 14.5 40.84375 
Q 13.40625 34.40625 13.40625 25.5 
Q 13.40625 16.203125 14.5 9.5 
Q 15.59375 2.796875 18.09375 -1.953125 
Q 20.59375 -6.703125 23.296875 -9.703125 
Q 26 -12.703125 30.40625 -16.09375 
z
" id="FreeSerif-40"/>
      <path d="M 1.296875 39.796875 
L 1.296875 41.5 
Q 8.5 43.5 15.296875 46 
L 16 45.796875 
L 16 38.296875 
Q 22.203125 43 25.203125 44.5 
Q 28.203125 46 31.5 46 
Q 39.40625 46 42.09375 37.59375 
Q 49.90625 46 58.40625 46 
Q 70 46 70 28.203125 
L 70 7.59375 
Q 70 2 74.296875 1.703125 
L 76.90625 1.5 
L 76.90625 0 
L 55 0 
L 55 1.5 
Q 59.40625 2 60.5 3.203125 
Q 61.59375 4.40625 61.59375 8.703125 
L 61.59375 29.796875 
Q 61.59375 36 60 38.390625 
Q 58.40625 40.796875 54.09375 40.796875 
Q 47.5 40.796875 43.203125 34.703125 
L 43.203125 9.5 
Q 43.203125 4.796875 44.640625 3.1875 
Q 46.09375 1.59375 50.40625 1.5 
L 50.40625 0 
L 28 0 
L 28 1.5 
Q 32.296875 1.796875 33.546875 3.09375 
Q 34.796875 4.40625 34.796875 8.59375 
L 34.796875 30.296875 
Q 34.796875 40.796875 28.203125 40.796875 
Q 25.40625 40.796875 21.953125 39.390625 
Q 18.5 38 16.40625 34.90625 
L 16.40625 6.703125 
Q 16.40625 3.796875 17.796875 2.75 
Q 19.203125 1.703125 23.203125 1.5 
L 23.203125 0 
L 1 0 
L 1 1.5 
Q 5.203125 1.59375 6.59375 3 
Q 8 4.40625 8 8.5 
L 8 33.796875 
Q 8 37.40625 7.25 38.796875 
Q 6.5 40.203125 4.5 40.203125 
Q 3 40.203125 1.296875 39.796875 
z
" id="FreeSerif-109"/>
      <path d="M 4.046875 67.703125 
Q 6.65625 66.09375 9.453125 63.84375 
Q 12.25 61.59375 15.796875 57.59375 
Q 19.34375 53.59375 22.046875 49.046875 
Q 24.75 44.5 26.59375 38.09375 
Q 28.453125 31.703125 28.453125 24.796875 
Q 28.453125 17.59375 26.59375 11.140625 
Q 24.75 4.703125 22.25 0.453125 
Q 19.75 -3.796875 15.890625 -7.75 
Q 12.046875 -11.703125 9.546875 -13.59375 
Q 7.046875 -15.5 3.75 -17.59375 
L 2.84375 -16 
Q 7.25 -12.40625 9.953125 -9.5 
Q 12.65625 -6.59375 15.15625 -1.9375 
Q 17.65625 2.703125 18.75 9.140625 
Q 19.84375 15.59375 19.84375 24.5 
Q 19.84375 33.796875 18.75 40.5 
Q 17.65625 47.203125 15.15625 51.953125 
Q 12.65625 56.703125 9.953125 59.703125 
Q 7.25 62.703125 2.84375 66.09375 
z
" id="FreeSerif-41"/>
     </defs>
     <g transform="translate(199.570938 546.200625)scale(0.24 -0.24)">
      <use xlink:href="#FreeSerif-88"/>
      <use x="71.399994" xlink:href="#FreeSerif-32"/>
      <use x="96.399979" xlink:href="#FreeSerif-99"/>
      <use x="140.784348" xlink:href="#FreeSerif-111"/>
      <use x="189.884338" xlink:href="#FreeSerif-111"/>
      <use x="238.968704" xlink:href="#FreeSerif-114"/>
      <use x="273.453064" xlink:href="#FreeSerif-100"/>
      <use x="323.353058" xlink:href="#FreeSerif-105"/>
      <use x="351.137421" xlink:href="#FreeSerif-110"/>
      <use x="400.037415" xlink:href="#FreeSerif-97"/>
      <use x="443.521774" xlink:href="#FreeSerif-116"/>
      <use x="471.821762" xlink:href="#FreeSerif-101"/>
      <use x="516.221756" xlink:href="#FreeSerif-32"/>
      <use x="541.221741" xlink:href="#FreeSerif-101"/>
      <use x="585.60611" xlink:href="#FreeSerif-114"/>
      <use x="620.106094" xlink:href="#FreeSerif-114"/>
      <use x="654.590454" xlink:href="#FreeSerif-111"/>
      <use x="703.67482" xlink:href="#FreeSerif-114"/>
      <use x="738.174805" xlink:href="#FreeSerif-32"/>
      <use x="763.174789" xlink:href="#FreeSerif-40"/>
      <use x="796.474777" xlink:href="#FreeSerif-99"/>
      <use x="840.859146" xlink:href="#FreeSerif-109"/>
      <use x="918.75914" xlink:href="#FreeSerif-41"/>
     </g>
    </g>
   </g>
   <g id="matplotlib.axis_2">
    <g id="ytick_1">
     <g id="line2d_15">
      <path clip-path="url(#p876f16bc47)" d="M 85.765625 502.609375 
L 541.875 502.609375 
" style="fill:none;stroke:#b0b0b0;stroke-linecap:square;stroke-width:0.8;"/>
     </g>
     <g id="line2d_16">
      <defs>
       <path d="M 0 0 
L -3.5 0 
" id="m81bc57abd3" style="stroke:#000000;stroke-width:0.8;"/>
      </defs>
      <g>
       <use style="stroke:#000000;stroke-width:0.8;" x="85.765625" xlink:href="#m81bc57abd3" y="502.609375"/>
      </g>
     </g>
     <g id="text_9">
      <!-- −15 -->
      <g transform="translate(50.6125 508.756094)scale(0.18 -0.18)">
       <use xlink:href="#FreeSerif-8722"/>
       <use x="56.399994" xlink:href="#FreeSerif-49"/>
       <use x="106.399979" xlink:href="#FreeSerif-53"/>
      </g>
     </g>
    </g>
    <g id="ytick_2">
     <g id="line2d_17">
      <path clip-path="url(#p876f16bc47)" d="M 85.765625 426.739583 
L 541.875 426.739583 
" style="fill:none;stroke:#b0b0b0;stroke-linecap:square;stroke-width:0.8;"/>
     </g>
     <g id="line2d_18">
      <g>
       <use style="stroke:#000000;stroke-width:0.8;" x="85.765625" xlink:href="#m81bc57abd3" y="426.739583"/>
      </g>
     </g>
     <g id="text_10">
      <!-- −10 -->
      <g transform="translate(50.6125 432.886302)scale(0.18 -0.18)">
       <use xlink:href="#FreeSerif-8722"/>
       <use x="56.399994" xlink:href="#FreeSerif-49"/>
       <use x="106.399979" xlink:href="#FreeSerif-48"/>
      </g>
     </g>
    </g>
    <g id="ytick_3">
     <g id="line2d_19">
      <path clip-path="url(#p876f16bc47)" d="M 85.765625 350.869792 
L 541.875 350.869792 
" style="fill:none;stroke:#b0b0b0;stroke-linecap:square;stroke-width:0.8;"/>
     </g>
     <g id="line2d_20">
      <g>
       <use style="stroke:#000000;stroke-width:0.8;" x="85.765625" xlink:href="#m81bc57abd3" y="350.869792"/>
      </g>
     </g>
     <g id="text_11">
      <!-- −5 -->
      <g transform="translate(59.6125 357.01651)scale(0.18 -0.18)">
       <use xlink:href="#FreeSerif-8722"/>
       <use x="56.399994" xlink:href="#FreeSerif-53"/>
      </g>
     </g>
    </g>
    <g id="ytick_4">
     <g id="line2d_21">
      <path clip-path="url(#p876f16bc47)" d="M 85.765625 275 
L 541.875 275 
" style="fill:none;stroke:#b0b0b0;stroke-linecap:square;stroke-width:0.8;"/>
     </g>
     <g id="line2d_22">
      <g>
       <use style="stroke:#000000;stroke-width:0.8;" x="85.765625" xlink:href="#m81bc57abd3" y="275"/>
      </g>
     </g>
     <g id="text_12">
      <!-- 0 -->
      <g transform="translate(69.765625 281.146719)scale(0.18 -0.18)">
       <use xlink:href="#FreeSerif-48"/>
      </g>
     </g>
    </g>
    <g id="ytick_5">
     <g id="line2d_23">
      <path clip-path="url(#p876f16bc47)" d="M 85.765625 199.130208 
L 541.875 199.130208 
" style="fill:none;stroke:#b0b0b0;stroke-linecap:square;stroke-width:0.8;"/>
     </g>
     <g id="line2d_24">
      <g>
       <use style="stroke:#000000;stroke-width:0.8;" x="85.765625" xlink:href="#m81bc57abd3" y="199.130208"/>
      </g>
     </g>
     <g id="text_13">
      <!-- 5 -->
      <g transform="translate(69.765625 205.276927)scale(0.18 -0.18)">
       <use xlink:href="#FreeSerif-53"/>
      </g>
     </g>
    </g>
    <g id="ytick_6">
     <g id="line2d_25">
      <path clip-path="url(#p876f16bc47)" d="M 85.765625 123.260417 
L 541.875 123.260417 
" style="fill:none;stroke:#b0b0b0;stroke-linecap:square;stroke-width:0.8;"/>
     </g>
     <g id="line2d_26">
      <g>
       <use style="stroke:#000000;stroke-width:0.8;" x="85.765625" xlink:href="#m81bc57abd3" y="123.260417"/>
      </g>
     </g>
     <g id="text_14">
      <!-- 10 -->
      <g transform="translate(60.765625 129.407135)scale(0.18 -0.18)">
       <use xlink:href="#FreeSerif-49"/>
       <use x="49.999985" xlink:href="#FreeSerif-48"/>
      </g>
     </g>
    </g>
    <g id="ytick_7">
     <g id="line2d_27">
      <path clip-path="url(#p876f16bc47)" d="M 85.765625 47.390625 
L 541.875 47.390625 
" style="fill:none;stroke:#b0b0b0;stroke-linecap:square;stroke-width:0.8;"/>
     </g>
     <g id="line2d_28">
      <g>
       <use style="stroke:#000000;stroke-width:0.8;" x="85.765625" xlink:href="#m81bc57abd3" y="47.390625"/>
      </g>
     </g>
     <g id="text_15">
      <!-- 15 -->
      <g transform="translate(60.765625 53.537344)scale(0.18 -0.18)">
       <use xlink:href="#FreeSerif-49"/>
       <use x="49.999985" xlink:href="#FreeSerif-53"/>
      </g>
     </g>
    </g>
    <g id="text_16">
     <!-- Z coordinate error (cm) -->
     <defs>
      <path d="M 40.296875 3.796875 
Q 43.09375 3.796875 45.390625 4.296875 
Q 47.703125 4.796875 49.25 5.296875 
Q 50.796875 5.796875 52.140625 7.1875 
Q 53.5 8.59375 54.140625 9.296875 
Q 54.796875 10 55.59375 12.046875 
Q 56.40625 14.09375 56.59375 14.6875 
Q 56.796875 15.296875 57.5 17.59375 
L 59.796875 17.59375 
L 57.40625 0 
L 1 0 
L 1 1.5 
L 44.703125 62.40625 
L 22.59375 62.40625 
Q 17.5 62.40625 14.203125 61.40625 
Q 10.90625 60.40625 9.25 58.203125 
Q 7.59375 56 7 54.203125 
Q 6.40625 52.40625 5.796875 49.09375 
L 3.203125 49.09375 
L 5.203125 66.203125 
L 57.796875 66.203125 
L 57.796875 64.703125 
L 14.59375 3.796875 
z
" id="FreeSerif-90"/>
     </defs>
     <g transform="translate(41.40375 388.03625)rotate(-90)scale(0.24 -0.24)">
      <use xlink:href="#FreeSerif-90"/>
      <use x="61.299988" xlink:href="#FreeSerif-32"/>
      <use x="86.299973" xlink:href="#FreeSerif-99"/>
      <use x="130.684341" xlink:href="#FreeSerif-111"/>
      <use x="179.784332" xlink:href="#FreeSerif-111"/>
      <use x="228.868698" xlink:href="#FreeSerif-114"/>
      <use x="263.353058" xlink:href="#FreeSerif-100"/>
      <use x="313.253052" xlink:href="#FreeSerif-105"/>
      <use x="341.037415" xlink:href="#FreeSerif-110"/>
      <use x="389.937408" xlink:href="#FreeSerif-97"/>
      <use x="433.421768" xlink:href="#FreeSerif-116"/>
      <use x="461.721756" xlink:href="#FreeSerif-101"/>
      <use x="506.12175" xlink:href="#FreeSerif-32"/>
      <use x="531.121735" xlink:href="#FreeSerif-101"/>
      <use x="575.506104" xlink:href="#FreeSerif-114"/>
      <use x="610.006088" xlink:href="#FreeSerif-114"/>
      <use x="644.490448" xlink:href="#FreeSerif-111"/>
      <use x="693.574814" xlink:href="#FreeSerif-114"/>
      <use x="728.074799" xlink:href="#FreeSerif-32"/>
      <use x="753.074783" xlink:href="#FreeSerif-40"/>
      <use x="786.374771" xlink:href="#FreeSerif-99"/>
      <use x="830.75914" xlink:href="#FreeSerif-109"/>
      <use x="908.659134" xlink:href="#FreeSerif-41"/>
     </g>
    </g>
   </g>
   <g id="patch_4">
    <path d="M 85.765625 502.609375 
L 85.765625 47.390625 
" style="fill:none;stroke:#000000;stroke-linecap:square;stroke-linejoin:miter;stroke-width:0.8;"/>
   </g>
   <g id="patch_5">
    <path d="M 541.875 502.609375 
L 541.875 47.390625 
" style="fill:none;stroke:#000000;stroke-linecap:square;stroke-linejoin:miter;stroke-width:0.8;"/>
   </g>
   <g id="patch_6">
    <path d="M 85.765625 502.609375 
L 541.875 502.609375 
" style="fill:none;stroke:#000000;stroke-linecap:square;stroke-linejoin:miter;stroke-width:0.8;"/>
   </g>
   <g id="patch_7">
    <path d="M 85.765625 47.390625 
L 541.875 47.390625 
" style="fill:none;stroke:#000000;stroke-linecap:square;stroke-linejoin:miter;stroke-width:0.8;"/>
   </g>
   <g id="text_17">
    <!-- Probability = 91.9% -->
    <defs>
     <path d="M 54.09375 48.09375 
Q 54.09375 45.5 53.5 43.09375 
Q 52.90625 40.703125 51.15625 38 
Q 49.40625 35.296875 46.5 33.34375 
Q 43.59375 31.40625 38.59375 30.09375 
Q 33.59375 28.796875 27 28.796875 
Q 24 28.796875 20.09375 29.09375 
L 20.09375 10.90625 
Q 20.09375 5.40625 21.84375 3.75 
Q 23.59375 2.09375 29.5 1.90625 
L 29.5 0 
L 1.5 0 
L 1.5 1.90625 
Q 7.203125 2.40625 8.546875 4.046875 
Q 9.90625 5.703125 9.90625 12 
L 9.90625 55.296875 
Q 9.90625 60.703125 8.5 62.203125 
Q 7.09375 63.703125 1.5 64.296875 
L 1.5 66.203125 
L 27.90625 66.203125 
Q 32.40625 66.203125 36.59375 65.34375 
Q 40.796875 64.5 44.9375 62.59375 
Q 49.09375 60.703125 51.59375 57 
Q 54.09375 53.296875 54.09375 48.09375 
z
M 20.09375 59.09375 
L 20.09375 33.09375 
Q 23.59375 32.796875 25.796875 32.796875 
Q 43.203125 32.796875 43.203125 47.5 
Q 43.203125 55.203125 38.390625 58.84375 
Q 33.59375 62.5 23.5 62.5 
Q 21.5 62.5 20.796875 61.796875 
Q 20.09375 61.09375 20.09375 59.09375 
z
" id="FreeSerif-80"/>
     <path d="M 16 68.09375 
L 16 37.5 
Q 17.5 41.203125 21.390625 43.59375 
Q 25.296875 46 29.90625 46 
Q 37.40625 46 42.453125 39.75 
Q 47.5 33.5 47.5 24.296875 
Q 47.5 13.59375 40.75 6.296875 
Q 34 -1 24.09375 -1 
Q 18.09375 -1 12.84375 1.046875 
Q 7.59375 3.09375 7.59375 5.40625 
L 7.59375 57.296875 
Q 7.59375 60.40625 6.640625 61.40625 
Q 5.703125 62.40625 2.703125 62.40625 
Q 1.59375 62.40625 1 62.296875 
L 1 63.90625 
Q 8.703125 65.796875 15.5 68.296875 
z
M 16 32.203125 
L 16 7 
Q 16 5.09375 18.890625 3.640625 
Q 21.796875 2.203125 25.703125 2.203125 
Q 31.90625 2.203125 35.296875 6.796875 
Q 38.703125 11.40625 38.703125 19.703125 
Q 38.703125 28.796875 35.25 34.25 
Q 31.796875 39.703125 25.90625 39.703125 
Q 22 39.703125 19 37.390625 
Q 16 35.09375 16 32.203125 
z
" id="FreeSerif-98"/>
     <path d="M 1 62.296875 
L 1 63.90625 
Q 10.90625 66.296875 16.90625 68.296875 
L 17.296875 68.09375 
L 17.296875 8.40625 
Q 17.296875 4.296875 18.640625 3.046875 
Q 20 1.796875 24.796875 1.5 
L 24.796875 0 
L 1.203125 0 
L 1.203125 1.5 
Q 5.90625 1.90625 7.40625 3.296875 
Q 8.90625 4.703125 8.90625 8.703125 
L 8.90625 56.40625 
Q 8.90625 59.90625 8 61.203125 
Q 7.09375 62.5 4.703125 62.5 
Q 2.703125 62.5 1 62.296875 
z
" id="FreeSerif-108"/>
     <path d="M 14.203125 -13.40625 
Q 17 -13.40625 20.09375 -7.203125 
Q 23.203125 -1 23.203125 1.90625 
Q 23.203125 3.203125 18.796875 12 
L 5.59375 40.40625 
Q 4.40625 43 0.5 43.59375 
L 0.5 45 
L 21.09375 45 
L 21.09375 43.5 
Q 17.90625 43.40625 16.59375 42.796875 
Q 15.296875 42.203125 15.296875 40.796875 
Q 15.296875 39.296875 16.296875 37 
L 27.796875 11.703125 
L 37.5 39.296875 
Q 37.90625 40.203125 37.90625 41 
Q 37.90625 43.5 33.09375 43.5 
L 33.09375 45 
L 46.59375 45 
L 46.59375 43.5 
Q 44.796875 43.296875 43.75 42.34375 
Q 42.703125 41.40625 41.796875 39 
L 26.40625 -1.796875 
Q 22.40625 -12.59375 18.453125 -17.1875 
Q 14.5 -21.796875 9.5 -21.796875 
Q 6.296875 -21.796875 4.1875 -20.140625 
Q 2.09375 -18.5 2.09375 -16 
Q 2.09375 -14.203125 3.390625 -12.890625 
Q 4.703125 -11.59375 6.40625 -11.59375 
Q 8.59375 -11.59375 11.09375 -12.5 
Q 13.59375 -13.40625 14.203125 -13.40625 
z
" id="FreeSerif-121"/>
     <path d="M 53.40625 38.59375 
L 53.40625 32 
L 3 32 
L 3 38.59375 
z
M 53.40625 18.59375 
L 53.40625 12 
L 3 12 
L 3 18.59375 
z
" id="FreeSerif-61"/>
     <path d="M 5.90625 -2.203125 
L 5.59375 -0.203125 
Q 17 1.796875 24.953125 9.5 
Q 32.90625 17.203125 36 29.40625 
Q 28.59375 23.703125 21 23.703125 
Q 12.90625 23.703125 7.953125 29.296875 
Q 3 34.90625 3 44 
Q 3 54.09375 8.953125 60.84375 
Q 14.90625 67.59375 23.796875 67.59375 
Q 33.5 67.59375 39.703125 59.6875 
Q 45.90625 51.796875 45.90625 39.40625 
Q 45.90625 35.40625 45.203125 31.203125 
Q 44.5 27 41.953125 21.25 
Q 39.40625 15.5 35.296875 10.953125 
Q 31.203125 6.40625 23.59375 2.703125 
Q 16 -1 5.90625 -2.203125 
z
M 24.59375 28 
Q 26.5 28 28.890625 28.546875 
Q 31.296875 29.09375 33.75 30.9375 
Q 36.203125 32.796875 36.203125 35.5 
L 36.203125 39.40625 
Q 36.203125 64.796875 23 64.796875 
Q 19.90625 64.796875 17.703125 63.140625 
Q 15.5 61.5 14.34375 58.796875 
Q 13.203125 56.09375 12.703125 53.296875 
Q 12.203125 50.5 12.203125 47.40625 
Q 12.203125 38.5 15.546875 33.25 
Q 18.90625 28 24.59375 28 
z
" id="FreeSerif-57"/>
     <path d="M 12.5 10 
Q 14.796875 10 16.4375 8.296875 
Q 18.09375 6.59375 18.09375 4.296875 
Q 18.09375 2.09375 16.390625 0.5 
Q 14.703125 -1.09375 12.40625 -1.09375 
Q 10.203125 -1.09375 8.59375 0.5 
Q 7 2.09375 7 4.296875 
Q 7 6.59375 8.640625 8.296875 
Q 10.296875 10 12.5 10 
z
" id="FreeSerif-46"/>
     <path d="M 66.90625 37.09375 
Q 71.796875 37.09375 74.5 34.296875 
Q 77.203125 31.5 77.203125 26.40625 
Q 77.203125 20.59375 74.890625 14.890625 
Q 72.59375 9.203125 68.59375 5.09375 
Q 63.5 0 56.90625 0 
Q 51.5 0 48.203125 3.546875 
Q 44.90625 7.09375 44.90625 12.90625 
Q 44.90625 22.296875 51.65625 29.6875 
Q 58.40625 37.09375 66.90625 37.09375 
z
M 58.59375 3 
Q 62.90625 3 66.703125 6.796875 
Q 70.5 10.59375 72.546875 15.84375 
Q 74.59375 21.09375 74.59375 25.90625 
Q 74.59375 29.203125 72.546875 31.546875 
Q 70.5 33.90625 67.59375 33.90625 
Q 63 33.90625 59.296875 28.703125 
Q 55.59375 23.5 54.046875 18.046875 
Q 52.5 12.59375 52.5 9.40625 
Q 52.5 6.59375 54.203125 4.796875 
Q 55.90625 3 58.59375 3 
z
M 28.203125 66.203125 
Q 31.296875 66.203125 33.1875 64.84375 
Q 35.09375 63.5 37.4375 62.140625 
Q 39.796875 60.796875 43.90625 60.796875 
Q 48.59375 60.796875 52.046875 62.296875 
Q 55.5 63.796875 59.5 67.59375 
L 63.40625 67.59375 
L 24.90625 -1.296875 
L 20.09375 -1.296875 
L 55.203125 61.296875 
Q 50 58.296875 44.203125 58.296875 
Q 40.296875 58.296875 37.703125 59.296875 
Q 38.40625 56.796875 38.40625 54.90625 
Q 38.40625 45.59375 32.453125 37.25 
Q 26.5 28.90625 17.90625 28.90625 
Q 13 28.90625 9.546875 32.65625 
Q 6.09375 36.40625 6.09375 41.59375 
Q 6.09375 51.09375 12.84375 58.640625 
Q 19.59375 66.203125 28.203125 66.203125 
z
M 28.203125 63.203125 
Q 23.40625 63.203125 18.546875 54.453125 
Q 13.703125 45.703125 13.703125 38.40625 
Q 13.703125 35.703125 15.34375 34 
Q 17 32.296875 19.59375 32.296875 
Q 25.703125 32.296875 30.796875 39.4375 
Q 35.90625 46.59375 35.90625 55.09375 
Q 35.90625 57 35 60 
Q 33 60.5 31.640625 61.140625 
Q 30.296875 61.796875 29.84375 62.1875 
Q 29.40625 62.59375 29 62.890625 
Q 28.59375 63.203125 28.203125 63.203125 
z
" id="FreeSerif-37"/>
    </defs>
    <g transform="translate(95.465521 68.144583)scale(0.24 -0.24)">
     <use xlink:href="#FreeSerif-80"/>
     <use x="57.584366" xlink:href="#FreeSerif-114"/>
     <use x="92.068726" xlink:href="#FreeSerif-111"/>
     <use x="141.153091" xlink:href="#FreeSerif-98"/>
     <use x="191.153076" xlink:href="#FreeSerif-97"/>
     <use x="234.637436" xlink:href="#FreeSerif-98"/>
     <use x="284.621796" xlink:href="#FreeSerif-105"/>
     <use x="312.406158" xlink:href="#FreeSerif-108"/>
     <use x="338.206146" xlink:href="#FreeSerif-105"/>
     <use x="365.974884" xlink:href="#FreeSerif-116"/>
     <use x="394.274872" xlink:href="#FreeSerif-121"/>
     <use x="441.374863" xlink:href="#FreeSerif-32"/>
     <use x="466.374847" xlink:href="#FreeSerif-61"/>
     <use x="522.774841" xlink:href="#FreeSerif-32"/>
     <use x="547.774826" xlink:href="#FreeSerif-57"/>
     <use x="597.774811" xlink:href="#FreeSerif-49"/>
     <use x="647.774796" xlink:href="#FreeSerif-46"/>
     <use x="672.77478" xlink:href="#FreeSerif-57"/>
     <use x="722.774765" xlink:href="#FreeSerif-37"/>
    </g>
   </g>
   <g id="text_18">
    <!-- X Z hitting plane -->
    <defs>
     <path d="M 15.796875 34.296875 
L 15.796875 10.203125 
Q 15.796875 5 17 3.5 
Q 18.203125 2 22.59375 1.5 
L 22.59375 0 
L 1 0 
L 1 1.5 
Q 5.296875 2.09375 6.34375 3.5 
Q 7.40625 4.90625 7.40625 10.203125 
L 7.40625 57.296875 
Q 7.40625 60.5 6.546875 61.5 
Q 5.703125 62.5 2.796875 62.5 
Q 2.09375 62.5 1.09375 62.296875 
L 1.09375 63.90625 
Q 8.203125 65.796875 15.296875 68.296875 
L 15.796875 68 
L 15.796875 37.59375 
Q 19.203125 42.09375 22.640625 44.046875 
Q 26.09375 46 30.5 46 
Q 42.796875 46 42.796875 30.09375 
L 42.796875 10.203125 
Q 42.796875 5 43.75 3.640625 
Q 44.703125 2.296875 48.796875 1.5 
L 48.796875 0 
L 27.59375 0 
L 27.59375 1.5 
Q 31.90625 1.90625 33.15625 3.5 
Q 34.40625 5.09375 34.40625 10.203125 
L 34.40625 30 
Q 34.40625 40.59375 26.90625 40.59375 
Q 24 40.59375 21.453125 39.140625 
Q 18.90625 37.703125 15.796875 34.296875 
z
" id="FreeSerif-104"/>
     <path d="M 6 5.40625 
Q 6 7.296875 7.34375 8.890625 
Q 8.703125 10.5 14.90625 16.296875 
Q 9.90625 18.796875 7.75 21.890625 
Q 5.59375 25 5.59375 29.703125 
Q 5.59375 36.5 10.4375 41.25 
Q 15.296875 46 22.296875 46 
Q 26.203125 46 30.640625 44.34375 
Q 35.09375 42.703125 38 42.703125 
L 45.703125 42.703125 
L 45.703125 38.796875 
L 37.40625 38.796875 
Q 39.296875 34.5 39.296875 30.40625 
Q 39.296875 23.5 34.640625 19.203125 
Q 30 14.90625 23.703125 14.90625 
Q 22.5 14.90625 18 15.40625 
Q 16 14.796875 14 12.6875 
Q 12 10.59375 12 9.09375 
Q 12 6.703125 19.796875 6.40625 
L 32.703125 5.796875 
Q 38.203125 5.59375 41.5 2.6875 
Q 44.796875 -0.203125 44.796875 -4.90625 
Q 44.796875 -12.09375 36.546875 -16.9375 
Q 28.296875 -21.796875 18.796875 -21.796875 
Q 11.703125 -21.796875 6.59375 -18.9375 
Q 1.5 -16.09375 1.5 -12.09375 
Q 1.5 -9.296875 3.75 -6.546875 
Q 6 -3.796875 11.296875 0.09375 
Q 8.203125 1.59375 7.09375 2.6875 
Q 6 3.796875 6 5.40625 
z
M 13.40625 -0.203125 
Q 10.296875 -3.90625 9.390625 -5.5 
Q 8.5 -7.09375 8.5 -8.796875 
Q 8.5 -12.09375 12.5 -14.09375 
Q 16.5 -16.09375 23.09375 -16.09375 
Q 31.59375 -16.09375 36.796875 -13.390625 
Q 42 -10.703125 42 -6.40625 
Q 42 -3.703125 39.203125 -2.59375 
Q 36.40625 -1.5 29.59375 -1.5 
Q 19.5 -1.5 13.40625 -0.203125 
z
M 31.59375 26.5 
Q 31.59375 28.203125 31.1875 30.59375 
Q 30.796875 33 29.796875 36.046875 
Q 28.796875 39.09375 26.59375 41.140625 
Q 24.40625 43.203125 21.296875 43.203125 
Q 17.796875 43.203125 15.84375 40.703125 
Q 13.90625 38.203125 13.90625 33.796875 
Q 13.90625 25.203125 17.09375 21.296875 
Q 20.296875 17.40625 24.09375 17.40625 
Q 27.59375 17.40625 29.59375 19.84375 
Q 31.59375 22.296875 31.59375 26.5 
z
" id="FreeSerif-103"/>
     <path d="M 1.40625 39.296875 
L 1.40625 40.90625 
Q 7.703125 42.796875 15.796875 46 
L 16.40625 45.796875 
L 16.40625 38.09375 
Q 22.796875 46 30.796875 46 
Q 38.09375 46 42.796875 40 
Q 47.5 34 47.5 24.703125 
Q 47.5 13.796875 41.453125 6.390625 
Q 35.40625 -1 26.5 -1 
Q 23.296875 -1 21.140625 -0.09375 
Q 19 0.796875 16.40625 3.296875 
L 16.40625 -12.40625 
Q 16.40625 -17.09375 18 -18.4375 
Q 19.59375 -19.796875 25.203125 -19.90625 
L 25.203125 -21.703125 
L 1 -21.703125 
L 1 -20 
Q 5.40625 -19.59375 6.703125 -18.296875 
Q 8 -17 8 -13.09375 
L 8 33.703125 
Q 8 37.203125 7.203125 38.296875 
Q 6.40625 39.40625 3.90625 39.40625 
Q 2.296875 39.40625 1.40625 39.296875 
z
M 16.40625 33.40625 
L 16.40625 8.796875 
Q 16.40625 6.59375 19.84375 4.390625 
Q 23.296875 2.203125 26.796875 2.203125 
Q 32.203125 2.203125 35.546875 7.34375 
Q 38.90625 12.5 38.90625 20.796875 
Q 38.90625 29.5 35.546875 34.75 
Q 32.203125 40 26.59375 40 
Q 23.09375 40 19.75 37.796875 
Q 16.40625 35.59375 16.40625 33.40625 
z
" id="FreeSerif-112"/>
    </defs>
    <g transform="translate(232.480937 41.390625)scale(0.24 -0.24)">
     <use xlink:href="#FreeSerif-88"/>
     <use x="71.399994" xlink:href="#FreeSerif-32"/>
     <use x="96.399979" xlink:href="#FreeSerif-90"/>
     <use x="157.699966" xlink:href="#FreeSerif-32"/>
     <use x="182.699951" xlink:href="#FreeSerif-104"/>
     <use x="232.499939" xlink:href="#FreeSerif-105"/>
     <use x="260.268677" xlink:href="#FreeSerif-116"/>
     <use x="288.568665" xlink:href="#FreeSerif-116"/>
     <use x="316.868652" xlink:href="#FreeSerif-105"/>
     <use x="344.653015" xlink:href="#FreeSerif-110"/>
     <use x="393.553009" xlink:href="#FreeSerif-103"/>
     <use x="440.253006" xlink:href="#FreeSerif-32"/>
     <use x="465.252991" xlink:href="#FreeSerif-112"/>
     <use x="515.23735" xlink:href="#FreeSerif-108"/>
     <use x="541.037338" xlink:href="#FreeSerif-97"/>
     <use x="584.537323" xlink:href="#FreeSerif-110"/>
     <use x="633.421692" xlink:href="#FreeSerif-101"/>
    </g>
   </g>
   <g id="legend_1">
    <g id="patch_8">
     <path d="M 418.595312 84.746875 
L 534.875 84.746875 
Q 536.875 84.746875 536.875 82.746875 
L 536.875 54.390625 
Q 536.875 52.390625 534.875 52.390625 
L 418.595312 52.390625 
Q 416.595312 52.390625 416.595312 54.390625 
L 416.595312 82.746875 
Q 416.595312 84.746875 418.595312 84.746875 
z
" style="fill:#ffffff;opacity:0.8;stroke:#cccccc;stroke-linejoin:miter;"/>
    </g>
    <g id="PathCollection_3">
     <g>
      <use style="fill:#0000ff;stroke:#0000ff;stroke-width:1.5;" x="430.595312" xlink:href="#m825d0b5e04" y="61.364063"/>
     </g>
    </g>
    <g id="text_19">
     <!-- prediction points -->
     <defs>
      <path d="M 18.109375 8.203125 
L 18.109375 -20.796875 
L 9.078125 -20.796875 
L 9.078125 54.6875 
L 18.109375 54.6875 
L 18.109375 46.390625 
Q 20.953125 51.265625 25.265625 53.625 
Q 29.59375 56 35.59375 56 
Q 45.5625 56 51.78125 48.09375 
Q 58.015625 40.1875 58.015625 27.296875 
Q 58.015625 14.40625 51.78125 6.484375 
Q 45.5625 -1.421875 35.59375 -1.421875 
Q 29.59375 -1.421875 25.265625 0.953125 
Q 20.953125 3.328125 18.109375 8.203125 
z
M 48.6875 27.296875 
Q 48.6875 37.203125 44.609375 42.84375 
Q 40.53125 48.484375 33.40625 48.484375 
Q 26.265625 48.484375 22.1875 42.84375 
Q 18.109375 37.203125 18.109375 27.296875 
Q 18.109375 17.390625 22.1875 11.75 
Q 26.265625 6.109375 33.40625 6.109375 
Q 40.53125 6.109375 44.609375 11.75 
Q 48.6875 17.390625 48.6875 27.296875 
z
" id="DejaVuSans-112"/>
      <path d="M 41.109375 46.296875 
Q 39.59375 47.171875 37.8125 47.578125 
Q 36.03125 48 33.890625 48 
Q 26.265625 48 22.1875 43.046875 
Q 18.109375 38.09375 18.109375 28.8125 
L 18.109375 0 
L 9.078125 0 
L 9.078125 54.6875 
L 18.109375 54.6875 
L 18.109375 46.1875 
Q 20.953125 51.171875 25.484375 53.578125 
Q 30.03125 56 36.53125 56 
Q 37.453125 56 38.578125 55.875 
Q 39.703125 55.765625 41.0625 55.515625 
z
" id="DejaVuSans-114"/>
      <path d="M 56.203125 29.59375 
L 56.203125 25.203125 
L 14.890625 25.203125 
Q 15.484375 15.921875 20.484375 11.0625 
Q 25.484375 6.203125 34.421875 6.203125 
Q 39.59375 6.203125 44.453125 7.46875 
Q 49.3125 8.734375 54.109375 11.28125 
L 54.109375 2.78125 
Q 49.265625 0.734375 44.1875 -0.34375 
Q 39.109375 -1.421875 33.890625 -1.421875 
Q 20.796875 -1.421875 13.15625 6.1875 
Q 5.515625 13.8125 5.515625 26.8125 
Q 5.515625 40.234375 12.765625 48.109375 
Q 20.015625 56 32.328125 56 
Q 43.359375 56 49.78125 48.890625 
Q 56.203125 41.796875 56.203125 29.59375 
z
M 47.21875 32.234375 
Q 47.125 39.59375 43.09375 43.984375 
Q 39.0625 48.390625 32.421875 48.390625 
Q 24.90625 48.390625 20.390625 44.140625 
Q 15.875 39.890625 15.1875 32.171875 
z
" id="DejaVuSans-101"/>
      <path d="M 45.40625 46.390625 
L 45.40625 75.984375 
L 54.390625 75.984375 
L 54.390625 0 
L 45.40625 0 
L 45.40625 8.203125 
Q 42.578125 3.328125 38.25 0.953125 
Q 33.9375 -1.421875 27.875 -1.421875 
Q 17.96875 -1.421875 11.734375 6.484375 
Q 5.515625 14.40625 5.515625 27.296875 
Q 5.515625 40.1875 11.734375 48.09375 
Q 17.96875 56 27.875 56 
Q 33.9375 56 38.25 53.625 
Q 42.578125 51.265625 45.40625 46.390625 
z
M 14.796875 27.296875 
Q 14.796875 17.390625 18.875 11.75 
Q 22.953125 6.109375 30.078125 6.109375 
Q 37.203125 6.109375 41.296875 11.75 
Q 45.40625 17.390625 45.40625 27.296875 
Q 45.40625 37.203125 41.296875 42.84375 
Q 37.203125 48.484375 30.078125 48.484375 
Q 22.953125 48.484375 18.875 42.84375 
Q 14.796875 37.203125 14.796875 27.296875 
z
" id="DejaVuSans-100"/>
      <path d="M 9.421875 54.6875 
L 18.40625 54.6875 
L 18.40625 0 
L 9.421875 0 
z
M 9.421875 75.984375 
L 18.40625 75.984375 
L 18.40625 64.59375 
L 9.421875 64.59375 
z
" id="DejaVuSans-105"/>
      <path d="M 48.78125 52.59375 
L 48.78125 44.1875 
Q 44.96875 46.296875 41.140625 47.34375 
Q 37.3125 48.390625 33.40625 48.390625 
Q 24.65625 48.390625 19.8125 42.84375 
Q 14.984375 37.3125 14.984375 27.296875 
Q 14.984375 17.28125 19.8125 11.734375 
Q 24.65625 6.203125 33.40625 6.203125 
Q 37.3125 6.203125 41.140625 7.25 
Q 44.96875 8.296875 48.78125 10.40625 
L 48.78125 2.09375 
Q 45.015625 0.34375 40.984375 -0.53125 
Q 36.96875 -1.421875 32.421875 -1.421875 
Q 20.0625 -1.421875 12.78125 6.34375 
Q 5.515625 14.109375 5.515625 27.296875 
Q 5.515625 40.671875 12.859375 48.328125 
Q 20.21875 56 33.015625 56 
Q 37.15625 56 41.109375 55.140625 
Q 45.0625 54.296875 48.78125 52.59375 
z
" id="DejaVuSans-99"/>
      <path d="M 18.3125 70.21875 
L 18.3125 54.6875 
L 36.8125 54.6875 
L 36.8125 47.703125 
L 18.3125 47.703125 
L 18.3125 18.015625 
Q 18.3125 11.328125 20.140625 9.421875 
Q 21.96875 7.515625 27.59375 7.515625 
L 36.8125 7.515625 
L 36.8125 0 
L 27.59375 0 
Q 17.1875 0 13.234375 3.875 
Q 9.28125 7.765625 9.28125 18.015625 
L 9.28125 47.703125 
L 2.6875 47.703125 
L 2.6875 54.6875 
L 9.28125 54.6875 
L 9.28125 70.21875 
z
" id="DejaVuSans-116"/>
      <path d="M 30.609375 48.390625 
Q 23.390625 48.390625 19.1875 42.75 
Q 14.984375 37.109375 14.984375 27.296875 
Q 14.984375 17.484375 19.15625 11.84375 
Q 23.34375 6.203125 30.609375 6.203125 
Q 37.796875 6.203125 41.984375 11.859375 
Q 46.1875 17.53125 46.1875 27.296875 
Q 46.1875 37.015625 41.984375 42.703125 
Q 37.796875 48.390625 30.609375 48.390625 
z
M 30.609375 56 
Q 42.328125 56 49.015625 48.375 
Q 55.71875 40.765625 55.71875 27.296875 
Q 55.71875 13.875 49.015625 6.21875 
Q 42.328125 -1.421875 30.609375 -1.421875 
Q 18.84375 -1.421875 12.171875 6.21875 
Q 5.515625 13.875 5.515625 27.296875 
Q 5.515625 40.765625 12.171875 48.375 
Q 18.84375 56 30.609375 56 
z
" id="DejaVuSans-111"/>
      <path d="M 54.890625 33.015625 
L 54.890625 0 
L 45.90625 0 
L 45.90625 32.71875 
Q 45.90625 40.484375 42.875 44.328125 
Q 39.84375 48.1875 33.796875 48.1875 
Q 26.515625 48.1875 22.3125 43.546875 
Q 18.109375 38.921875 18.109375 30.90625 
L 18.109375 0 
L 9.078125 0 
L 9.078125 54.6875 
L 18.109375 54.6875 
L 18.109375 46.1875 
Q 21.34375 51.125 25.703125 53.5625 
Q 30.078125 56 35.796875 56 
Q 45.21875 56 50.046875 50.171875 
Q 54.890625 44.34375 54.890625 33.015625 
z
" id="DejaVuSans-110"/>
      <path id="DejaVuSans-32"/>
      <path d="M 44.28125 53.078125 
L 44.28125 44.578125 
Q 40.484375 46.53125 36.375 47.5 
Q 32.28125 48.484375 27.875 48.484375 
Q 21.1875 48.484375 17.84375 46.4375 
Q 14.5 44.390625 14.5 40.28125 
Q 14.5 37.15625 16.890625 35.375 
Q 19.28125 33.59375 26.515625 31.984375 
L 29.59375 31.296875 
Q 39.15625 29.25 43.1875 25.515625 
Q 47.21875 21.78125 47.21875 15.09375 
Q 47.21875 7.46875 41.1875 3.015625 
Q 35.15625 -1.421875 24.609375 -1.421875 
Q 20.21875 -1.421875 15.453125 -0.5625 
Q 10.6875 0.296875 5.421875 2 
L 5.421875 11.28125 
Q 10.40625 8.6875 15.234375 7.390625 
Q 20.0625 6.109375 24.8125 6.109375 
Q 31.15625 6.109375 34.5625 8.28125 
Q 37.984375 10.453125 37.984375 14.40625 
Q 37.984375 18.0625 35.515625 20.015625 
Q 33.0625 21.96875 24.703125 23.78125 
L 21.578125 24.515625 
Q 13.234375 26.265625 9.515625 29.90625 
Q 5.8125 33.546875 5.8125 39.890625 
Q 5.8125 47.609375 11.28125 51.796875 
Q 16.75 56 26.8125 56 
Q 31.78125 56 36.171875 55.265625 
Q 40.578125 54.546875 44.28125 53.078125 
z
" id="DejaVuSans-115"/>
     </defs>
     <g transform="translate(448.595312 63.989063)scale(0.1 -0.1)">
      <use xlink:href="#DejaVuSans-112"/>
      <use x="63.476562" xlink:href="#DejaVuSans-114"/>
      <use x="104.558594" xlink:href="#DejaVuSans-101"/>
      <use x="166.082031" xlink:href="#DejaVuSans-100"/>
      <use x="229.558594" xlink:href="#DejaVuSans-105"/>
      <use x="257.341797" xlink:href="#DejaVuSans-99"/>
      <use x="312.322266" xlink:href="#DejaVuSans-116"/>
      <use x="351.53125" xlink:href="#DejaVuSans-105"/>
      <use x="379.314453" xlink:href="#DejaVuSans-111"/>
      <use x="440.496094" xlink:href="#DejaVuSans-110"/>
      <use x="503.875" xlink:href="#DejaVuSans-32"/>
      <use x="535.662109" xlink:href="#DejaVuSans-112"/>
      <use x="599.138672" xlink:href="#DejaVuSans-111"/>
      <use x="660.320312" xlink:href="#DejaVuSans-105"/>
      <use x="688.103516" xlink:href="#DejaVuSans-110"/>
      <use x="751.482422" xlink:href="#DejaVuSans-116"/>
      <use x="790.691406" xlink:href="#DejaVuSans-115"/>
     </g>
    </g>
    <g id="PathCollection_4">
     <g>
      <use style="fill:#ff0000;stroke:#ff0000;" x="430.595312" xlink:href="#m30aa3e65d9" y="76.042188"/>
     </g>
    </g>
    <g id="text_20">
     <!-- target point -->
     <defs>
      <path d="M 34.28125 27.484375 
Q 23.390625 27.484375 19.1875 25 
Q 14.984375 22.515625 14.984375 16.5 
Q 14.984375 11.71875 18.140625 8.90625 
Q 21.296875 6.109375 26.703125 6.109375 
Q 34.1875 6.109375 38.703125 11.40625 
Q 43.21875 16.703125 43.21875 25.484375 
L 43.21875 27.484375 
z
M 52.203125 31.203125 
L 52.203125 0 
L 43.21875 0 
L 43.21875 8.296875 
Q 40.140625 3.328125 35.546875 0.953125 
Q 30.953125 -1.421875 24.3125 -1.421875 
Q 15.921875 -1.421875 10.953125 3.296875 
Q 6 8.015625 6 15.921875 
Q 6 25.140625 12.171875 29.828125 
Q 18.359375 34.515625 30.609375 34.515625 
L 43.21875 34.515625 
L 43.21875 35.40625 
Q 43.21875 41.609375 39.140625 45 
Q 35.0625 48.390625 27.6875 48.390625 
Q 23 48.390625 18.546875 47.265625 
Q 14.109375 46.140625 10.015625 43.890625 
L 10.015625 52.203125 
Q 14.9375 54.109375 19.578125 55.046875 
Q 24.21875 56 28.609375 56 
Q 40.484375 56 46.34375 49.84375 
Q 52.203125 43.703125 52.203125 31.203125 
z
" id="DejaVuSans-97"/>
      <path d="M 45.40625 27.984375 
Q 45.40625 37.75 41.375 43.109375 
Q 37.359375 48.484375 30.078125 48.484375 
Q 22.859375 48.484375 18.828125 43.109375 
Q 14.796875 37.75 14.796875 27.984375 
Q 14.796875 18.265625 18.828125 12.890625 
Q 22.859375 7.515625 30.078125 7.515625 
Q 37.359375 7.515625 41.375 12.890625 
Q 45.40625 18.265625 45.40625 27.984375 
z
M 54.390625 6.78125 
Q 54.390625 -7.171875 48.1875 -13.984375 
Q 42 -20.796875 29.203125 -20.796875 
Q 24.46875 -20.796875 20.265625 -20.09375 
Q 16.0625 -19.390625 12.109375 -17.921875 
L 12.109375 -9.1875 
Q 16.0625 -11.328125 19.921875 -12.34375 
Q 23.78125 -13.375 27.78125 -13.375 
Q 36.625 -13.375 41.015625 -8.765625 
Q 45.40625 -4.15625 45.40625 5.171875 
L 45.40625 9.625 
Q 42.625 4.78125 38.28125 2.390625 
Q 33.9375 0 27.875 0 
Q 17.828125 0 11.671875 7.65625 
Q 5.515625 15.328125 5.515625 27.984375 
Q 5.515625 40.671875 11.671875 48.328125 
Q 17.828125 56 27.875 56 
Q 33.9375 56 38.28125 53.609375 
Q 42.625 51.21875 45.40625 46.390625 
L 45.40625 54.6875 
L 54.390625 54.6875 
z
" id="DejaVuSans-103"/>
     </defs>
     <g transform="translate(448.595312 78.667188)scale(0.1 -0.1)">
      <use xlink:href="#DejaVuSans-116"/>
      <use x="39.208984" xlink:href="#DejaVuSans-97"/>
      <use x="100.488281" xlink:href="#DejaVuSans-114"/>
      <use x="141.585938" xlink:href="#DejaVuSans-103"/>
      <use x="205.0625" xlink:href="#DejaVuSans-101"/>
      <use x="266.585938" xlink:href="#DejaVuSans-116"/>
      <use x="305.794922" xlink:href="#DejaVuSans-32"/>
      <use x="337.582031" xlink:href="#DejaVuSans-112"/>
      <use x="401.058594" xlink:href="#DejaVuSans-111"/>
      <use x="462.240234" xlink:href="#DejaVuSans-105"/>
      <use x="490.023438" xlink:href="#DejaVuSans-110"/>
      <use x="553.402344" xlink:href="#DejaVuSans-116"/>
     </g>
    </g>
   </g>
  </g>
 </g>
 <defs>
  <clipPath id="p876f16bc47">
   <rect height="455.21875" width="456.109375" x="85.765625" y="47.390625"/>
  </clipPath>
 </defs>
</svg>
